<svg width="36" height="36" viewBox="0 0 36 36" fill="none" xmlns="http://www.w3.org/2000/svg">
<path d="M27.19 34C26.748 33.9996 26.3163 33.8673 25.95 33.62L18.49 28.62C18.4532 28.5946 18.4096 28.581 18.365 28.581C18.3203 28.581 18.2767 28.5946 18.24 28.62L10.78 33.62C10.4054 33.8701 9.96353 34.0004 9.51314 33.9935C9.06276 33.9866 8.62513 33.8428 8.25837 33.5813C7.89161 33.3198 7.61308 32.9529 7.45976 32.5294C7.30644 32.1058 7.28559 31.6457 7.39997 31.21L9.84997 22.57C9.86155 22.5266 9.86015 22.4807 9.84593 22.438C9.83171 22.3954 9.8053 22.3578 9.76997 22.33L2.70997 16.78C2.33831 16.5031 2.06262 16.1169 1.92156 15.6754C1.78049 15.2339 1.78113 14.7594 1.92338 14.3183C2.06563 13.8772 2.34236 13.4917 2.71476 13.2158C3.08717 12.94 3.53658 12.7876 3.99997 12.78L13 12.44C13.0442 12.4369 13.0866 12.4212 13.1221 12.3945C13.1576 12.3679 13.1846 12.3316 13.2 12.29L16.3 3.86C16.4562 3.43263 16.74 3.06361 17.113 2.80289C17.4859 2.54217 17.9299 2.40234 18.385 2.40234C18.84 2.40234 19.284 2.54217 19.657 2.80289C20.0299 3.06361 20.3137 3.43263 20.47 3.86L23.57 12.29C23.5853 12.3316 23.6123 12.3679 23.6478 12.3945C23.6833 12.4212 23.7257 12.4369 23.77 12.44L32.77 12.78C33.2334 12.7876 33.6828 12.94 34.0552 13.2158C34.4276 13.4917 34.7043 13.8772 34.8466 14.3183C34.9888 14.7594 34.9894 15.2339 34.8484 15.6754C34.7073 16.1169 34.4316 16.5031 34.06 16.78L27 22.33C26.9636 22.3569 26.9363 22.3944 26.922 22.4373C26.9077 22.4803 26.907 22.5266 26.92 22.57L29.37 31.21C29.456 31.5414 29.4645 31.8882 29.3949 32.2234C29.3253 32.5586 29.1795 32.8733 28.9687 33.1431C28.7579 33.4129 28.4878 33.6305 28.1793 33.7791C27.8709 33.9277 27.5323 34.0033 27.19 34ZM18.37 26.58C18.8128 26.5935 19.2413 26.7399 19.6 27L27.06 32C27.0978 32.0287 27.1439 32.0445 27.1913 32.0448C27.2388 32.0452 27.2852 32.0302 27.3234 32.0021C27.3617 31.974 27.3898 31.9342 27.4036 31.8888C27.4174 31.8433 27.4161 31.7946 27.4 31.75L24.95 23.11C24.8294 22.6862 24.8383 22.236 24.9755 21.8172C25.1127 21.3985 25.372 21.0303 25.72 20.76L32.78 15.21C32.8185 15.1829 32.8473 15.1443 32.8622 15.0996C32.8771 15.055 32.8773 15.0067 32.8627 14.962C32.8482 14.9172 32.8197 14.8783 32.7814 14.8509C32.7431 14.8236 32.697 14.8092 32.65 14.81L23.65 14.47C23.2093 14.4528 22.7837 14.3048 22.4275 14.0447C22.0713 13.7847 21.8006 13.4245 21.65 13.01L18.55 4.58C18.536 4.53524 18.5081 4.49611 18.4703 4.46833C18.4325 4.44055 18.3869 4.42557 18.34 4.42557C18.2931 4.42557 18.2474 4.44055 18.2096 4.46833C18.1719 4.49611 18.1439 4.53524 18.13 4.58L15.06 13C14.9093 13.4145 14.6386 13.7747 14.2824 14.0347C13.9262 14.2948 13.5007 14.4428 13.06 14.46L4.05997 14.8C4.01291 14.7992 3.96685 14.8136 3.92855 14.8409C3.89026 14.8683 3.86174 14.9072 3.84719 14.952C3.83265 14.9967 3.83284 15.045 3.84774 15.0896C3.86264 15.1343 3.89146 15.1729 3.92997 15.2L11 20.76C11.3469 21.0312 11.6054 21.3994 11.7425 21.8179C11.8796 22.2363 11.8892 22.6861 11.77 23.11L9.32997 31.75C9.31541 31.7933 9.31534 31.8401 9.32977 31.8834C9.34421 31.9267 9.37236 31.9641 9.40997 31.99C9.4462 32.021 9.4923 32.038 9.53997 32.038C9.58764 32.038 9.63374 32.021 9.66997 31.99L17.13 26.99C17.4946 26.7482 17.9225 26.6194 18.36 26.62L18.37 26.58Z" fill="#FF7A00"/>
</svg>
