<svg width="400" height="70" viewBox="0 0 400 70" fill="none" xmlns="http://www.w3.org/2000/svg">
<mask id="path-1-inside-1_354_157" fill="white">
<path d="M6.83154 12.916L3.33691 2.78076H3.26221C3.27881 3.00765 3.29818 3.31755 3.32031 3.71045C3.34245 4.10335 3.36182 4.52393 3.37842 4.97217C3.39502 5.42041 3.40332 5.84928 3.40332 6.25879V12.916H1.59375V0.780273H4.39111L7.75293 10.4673H7.80273L11.2808 0.780273H14.0698V12.916H12.1689V6.15918C12.1689 5.78841 12.1745 5.38721 12.1855 4.95557C12.2021 4.52393 12.2188 4.11442 12.2354 3.72705C12.2575 3.33968 12.2741 3.02979 12.2852 2.79736H12.2188L8.59131 12.916H6.83154Z"/>
<path d="M21.1789 3.55273C22.3411 3.55273 23.2182 3.81006 23.8103 4.32471C24.4079 4.83936 24.7068 5.64176 24.7068 6.73193V12.916H23.3205L22.947 11.6128H22.8806C22.6205 11.9448 22.3521 12.2188 22.0754 12.4346C21.7987 12.6504 21.4778 12.8109 21.1125 12.916C20.7528 13.0267 20.3129 13.082 19.7927 13.082C19.2449 13.082 18.7551 12.9824 18.3235 12.7832C17.8918 12.5785 17.5515 12.2686 17.3025 11.8535C17.0535 11.4385 16.9289 10.9128 16.9289 10.2764C16.9289 9.33008 17.2803 8.61898 17.9831 8.14307C18.6915 7.66715 19.7595 7.4043 21.1872 7.35449L22.781 7.29639V6.81494C22.781 6.17855 22.6316 5.72477 22.3328 5.45361C22.0395 5.18245 21.6244 5.04688 21.0876 5.04688C20.6283 5.04688 20.1829 5.11328 19.7512 5.24609C19.3196 5.37891 18.899 5.54215 18.4895 5.73584L17.8586 4.35791C18.3069 4.11995 18.816 3.92627 19.386 3.77686C19.9615 3.62744 20.5592 3.55273 21.1789 3.55273ZM22.7727 8.5249L21.5857 8.56641C20.6117 8.59961 19.9283 8.76562 19.5354 9.06445C19.1425 9.36328 18.946 9.77279 18.946 10.293C18.946 10.7467 19.0816 11.0788 19.3528 11.2891C19.6239 11.4938 19.9809 11.5962 20.4236 11.5962C21.0987 11.5962 21.6576 11.4053 22.1003 11.0234C22.5486 10.6361 22.7727 10.0688 22.7727 9.32178V8.5249Z"/>
<path d="M27.0263 17C26.7386 17 26.4647 16.9779 26.2046 16.9336C25.9445 16.8949 25.7259 16.8478 25.5488 16.7925V15.2319C25.737 15.2873 25.9196 15.3288 26.0967 15.3564C26.2737 15.3841 26.4757 15.3979 26.7026 15.3979C27.0623 15.3979 27.3584 15.2983 27.5908 15.0991C27.8288 14.8999 27.9477 14.5208 27.9477 13.9619V3.72705H29.8984V14.1362C29.8984 14.6951 29.7988 15.1904 29.5996 15.6221C29.4059 16.0537 29.096 16.3913 28.6699 16.6348C28.2493 16.8783 27.7015 17 27.0263 17ZM27.8315 1.27832C27.8315 0.885417 27.9367 0.608724 28.147 0.448242C28.3628 0.28776 28.6256 0.20752 28.9355 0.20752C29.2344 0.20752 29.4917 0.28776 29.7075 0.448242C29.9289 0.608724 30.0395 0.885417 30.0395 1.27832C30.0395 1.66569 29.9289 1.94238 29.7075 2.1084C29.4917 2.26888 29.2344 2.34912 28.9355 2.34912C28.6256 2.34912 28.3628 2.26888 28.147 2.1084C27.9367 1.94238 27.8315 1.66569 27.8315 1.27832Z"/>
<path d="M41.3405 8.30078C41.3405 9.06445 41.2409 9.74235 41.0417 10.3345C40.8425 10.9266 40.552 11.4274 40.1701 11.8369C39.7883 12.2409 39.329 12.5508 38.7922 12.7666C38.2554 12.9769 37.6495 13.082 36.9743 13.082C36.3435 13.082 35.7652 12.9769 35.2395 12.7666C34.7138 12.5508 34.2572 12.2409 33.8698 11.8369C33.488 11.4274 33.1919 10.9266 32.9817 10.3345C32.7714 9.74235 32.6662 9.06445 32.6662 8.30078C32.6662 7.28809 32.8405 6.43034 33.1892 5.72754C33.5433 5.01921 34.0469 4.47965 34.6999 4.10889C35.3529 3.73812 36.1304 3.55273 37.0324 3.55273C37.8791 3.55273 38.6262 3.73812 39.2737 4.10889C39.9211 4.47965 40.4275 5.01921 40.7927 5.72754C41.1579 6.43587 41.3405 7.29362 41.3405 8.30078ZM34.675 8.30078C34.675 8.97038 34.7553 9.54313 34.9157 10.019C35.0818 10.495 35.3363 10.8602 35.6794 11.1147C36.0225 11.3638 36.4652 11.4883 37.0075 11.4883C37.5499 11.4883 37.9926 11.3638 38.3357 11.1147C38.6788 10.8602 38.9306 10.495 39.091 10.019C39.2515 9.54313 39.3318 8.97038 39.3318 8.30078C39.3318 7.63118 39.2515 7.06396 39.091 6.59912C38.9306 6.12874 38.6788 5.77181 38.3357 5.52832C37.9926 5.2793 37.5471 5.15479 36.9992 5.15479C36.1913 5.15479 35.6019 5.42594 35.2312 5.96826C34.8604 6.51058 34.675 7.28809 34.675 8.30078Z"/>
<path d="M48.7485 3.55273C48.9034 3.55273 49.0722 3.56104 49.2548 3.57764C49.4375 3.59424 49.5952 3.61637 49.728 3.64404L49.5454 5.47021C49.4292 5.43701 49.2853 5.41211 49.1137 5.39551C48.9477 5.37891 48.7983 5.37061 48.6655 5.37061C48.3169 5.37061 47.9848 5.42871 47.6694 5.54492C47.354 5.6556 47.0745 5.82715 46.831 6.05957C46.5875 6.28646 46.3966 6.57145 46.2583 6.91455C46.1199 7.25765 46.0507 7.65609 46.0507 8.10986V12.916H44.0918V3.72705H45.6191L45.8847 5.3457H45.976C46.1587 5.01921 46.3855 4.72038 46.6567 4.44922C46.9279 4.17806 47.2378 3.96224 47.5864 3.80176C47.9406 3.63574 48.3279 3.55273 48.7485 3.55273Z"/>
<path d="M56.1518 8.25928C56.1518 7.32959 56.2403 6.42204 56.4174 5.53662C56.6 4.6512 56.8767 3.80729 57.2475 3.00488C57.6183 2.20247 58.0859 1.46094 58.6503 0.780273H60.352C59.5607 1.83724 58.963 3.00765 58.559 4.2915C58.1606 5.57536 57.9614 6.89242 57.9614 8.24268C57.9614 9.12256 58.0499 9.99414 58.227 10.8574C58.4041 11.7207 58.6697 12.5508 59.0239 13.3477C59.378 14.1501 59.8152 14.9027 60.3354 15.6055H58.6503C58.0859 14.9414 57.6183 14.2165 57.2475 13.4307C56.8767 12.6449 56.6 11.8148 56.4174 10.9404C56.2403 10.0661 56.1518 9.17236 56.1518 8.25928Z"/>
<path d="M68.947 10.293C68.947 10.8962 68.8003 11.4053 68.507 11.8203C68.2137 12.2354 67.7848 12.5508 67.2204 12.7666C66.6615 12.9769 65.9753 13.082 65.1618 13.082C64.5199 13.082 63.9665 13.035 63.5016 12.9409C63.0423 12.8524 62.6079 12.714 62.1984 12.5259V10.8408C62.6356 11.0456 63.1253 11.2227 63.6677 11.3721C64.2155 11.5215 64.7329 11.5962 65.2199 11.5962C65.8618 11.5962 66.3239 11.4966 66.6061 11.2974C66.8884 11.0926 67.0295 10.8215 67.0295 10.4839C67.0295 10.2847 66.9714 10.1076 66.8552 9.95264C66.7445 9.79215 66.5342 9.62891 66.2243 9.46289C65.9199 9.29134 65.4717 9.08659 64.8796 8.84863C64.2985 8.61621 63.8088 8.38379 63.4103 8.15137C63.0119 7.91895 62.7103 7.63949 62.5055 7.31299C62.3008 6.98096 62.1984 6.55762 62.1984 6.04297C62.1984 5.22949 62.5194 4.61247 63.1613 4.19189C63.8088 3.76579 64.6637 3.55273 65.7262 3.55273C66.2907 3.55273 66.822 3.61084 67.32 3.72705C67.8236 3.83773 68.3161 4.00098 68.7975 4.2168L68.1833 5.68604C67.7682 5.50342 67.3504 5.354 66.9299 5.23779C66.5148 5.11605 66.0915 5.05518 65.6598 5.05518C65.1563 5.05518 64.7717 5.13265 64.506 5.2876C64.2459 5.44255 64.1159 5.6639 64.1159 5.95166C64.1159 6.16748 64.1795 6.3501 64.3068 6.49951C64.4341 6.64893 64.6527 6.79834 64.9626 6.94775C65.278 7.09717 65.7152 7.28255 66.2741 7.50391C66.822 7.71419 67.2951 7.93555 67.6935 8.16797C68.0975 8.39486 68.4074 8.67432 68.6232 9.00635C68.839 9.33838 68.947 9.76725 68.947 10.293Z"/>
<path d="M75.226 3.55273C76.045 3.55273 76.7478 3.72152 77.3344 4.05908C77.921 4.39665 78.372 4.87533 78.6874 5.49512C79.0029 6.11491 79.1606 6.85645 79.1606 7.71973V8.76562H73.0263C73.0484 9.65658 73.2864 10.3428 73.7402 10.8242C74.1995 11.3057 74.8414 11.5464 75.6659 11.5464C76.2525 11.5464 76.7782 11.491 77.2431 11.3804C77.7135 11.2642 78.1977 11.0954 78.6957 10.874V12.4595C78.2364 12.6753 77.7688 12.833 77.2929 12.9326C76.817 13.0322 76.247 13.082 75.5829 13.082C74.6809 13.082 73.8868 12.9077 73.2006 12.5591C72.5199 12.2049 71.9859 11.6792 71.5986 10.9819C71.2167 10.2847 71.0258 9.41862 71.0258 8.38379C71.0258 7.35449 71.2001 6.48014 71.5488 5.76074C71.8974 5.04134 72.3871 4.49349 73.018 4.11719C73.6488 3.74089 74.3849 3.55273 75.226 3.55273ZM75.226 5.02197C74.6117 5.02197 74.1137 5.22119 73.7319 5.61963C73.3556 6.01807 73.1342 6.60189 73.0678 7.37109H77.2514C77.2459 6.91178 77.1684 6.50505 77.019 6.15088C76.8751 5.79671 76.6537 5.52002 76.3549 5.3208C76.0616 5.12158 75.6853 5.02197 75.226 5.02197Z"/>
<path d="M83.8293 12.916H81.8703V0H83.8293V12.916Z"/>
<path d="M90.789 3.55273C91.608 3.55273 92.3108 3.72152 92.8974 4.05908C93.484 4.39665 93.935 4.87533 94.2504 5.49512C94.5658 6.11491 94.7235 6.85645 94.7235 7.71973V8.76562H88.5893C88.6114 9.65658 88.8493 10.3428 89.3031 10.8242C89.7624 11.3057 90.4044 11.5464 91.2289 11.5464C91.8155 11.5464 92.3412 11.491 92.8061 11.3804C93.2764 11.2642 93.7606 11.0954 94.2587 10.874V12.4595C93.7994 12.6753 93.3318 12.833 92.8559 12.9326C92.3799 13.0322 91.81 13.082 91.1459 13.082C90.2439 13.082 89.4498 12.9077 88.7636 12.5591C88.0829 12.2049 87.5489 11.6792 87.1615 10.9819C86.7797 10.2847 86.5888 9.41862 86.5888 8.38379C86.5888 7.35449 86.7631 6.48014 87.1117 5.76074C87.4604 5.04134 87.9501 4.49349 88.581 4.11719C89.2118 3.74089 89.9478 3.55273 90.789 3.55273ZM90.789 5.02197C90.1747 5.02197 89.6767 5.22119 89.2948 5.61963C88.9185 6.01807 88.6972 6.60189 88.6308 7.37109H92.8144C92.8088 6.91178 92.7313 6.50505 92.5819 6.15088C92.4381 5.79671 92.2167 5.52002 91.9179 5.3208C91.6246 5.12158 91.2483 5.02197 90.789 5.02197Z"/>
<path d="M101.135 13.082C100.267 13.082 99.514 12.9132 98.8776 12.5757C98.2412 12.2381 97.7514 11.7207 97.4083 11.0234C97.0652 10.3262 96.8937 9.44076 96.8937 8.36719C96.8937 7.24935 97.0818 6.33626 97.4581 5.62793C97.8344 4.9196 98.3546 4.39665 99.0187 4.05908C99.6883 3.72152 100.455 3.55273 101.318 3.55273C101.866 3.55273 102.361 3.60807 102.804 3.71875C103.252 3.82389 103.631 3.95394 103.941 4.10889L103.36 5.66943C103.022 5.53109 102.677 5.41488 102.322 5.3208C101.968 5.22673 101.628 5.17969 101.301 5.17969C100.765 5.17969 100.316 5.29867 99.9567 5.53662C99.6025 5.77458 99.3369 6.12874 99.1598 6.59912C98.9883 7.0695 98.9025 7.65332 98.9025 8.35059C98.9025 9.02572 98.991 9.5957 99.1681 10.0605C99.3452 10.5199 99.608 10.8685 99.9567 11.1064C100.305 11.3389 100.734 11.4551 101.243 11.4551C101.747 11.4551 102.198 11.3942 102.596 11.2725C102.995 11.1507 103.371 10.993 103.725 10.7993V12.4927C103.377 12.6919 103.003 12.8385 102.605 12.9326C102.206 13.0322 101.716 13.082 101.135 13.082Z"/>
<path d="M109.813 11.5049C110.068 11.5049 110.32 11.4827 110.569 11.4385C110.818 11.3887 111.045 11.3306 111.249 11.2642V12.7417C111.034 12.8358 110.754 12.916 110.411 12.9824C110.068 13.0488 109.711 13.082 109.34 13.082C108.82 13.082 108.352 12.9963 107.937 12.8247C107.522 12.6476 107.193 12.346 106.95 11.9199C106.706 11.4938 106.584 10.9045 106.584 10.1519V5.21289H105.331V4.34131L106.676 3.65234L107.315 1.68506H108.543V3.72705H111.175V5.21289H108.543V10.127C108.543 10.5918 108.66 10.9377 108.892 11.1646C109.124 11.3914 109.432 11.5049 109.813 11.5049Z"/>
<path d="M122.156 3.55273C123.318 3.55273 124.195 3.81006 124.787 4.32471C125.385 4.83936 125.683 5.64176 125.683 6.73193V12.916H124.297L123.924 11.6128H123.857C123.597 11.9448 123.329 12.2188 123.052 12.4346C122.775 12.6504 122.454 12.8109 122.089 12.916C121.73 13.0267 121.29 13.082 120.769 13.082C120.222 13.082 119.732 12.9824 119.3 12.7832C118.869 12.5785 118.528 12.2686 118.279 11.8535C118.03 11.4385 117.906 10.9128 117.906 10.2764C117.906 9.33008 118.257 8.61898 118.96 8.14307C119.668 7.66715 120.736 7.4043 122.164 7.35449L123.758 7.29639V6.81494C123.758 6.17855 123.608 5.72477 123.309 5.45361C123.016 5.18245 122.601 5.04688 122.064 5.04688C121.605 5.04688 121.16 5.11328 120.728 5.24609C120.296 5.37891 119.876 5.54215 119.466 5.73584L118.835 4.35791C119.284 4.11995 119.793 3.92627 120.363 3.77686C120.938 3.62744 121.536 3.55273 122.156 3.55273ZM123.749 8.5249L122.562 8.56641C121.588 8.59961 120.905 8.76562 120.512 9.06445C120.119 9.36328 119.923 9.77279 119.923 10.293C119.923 10.7467 120.058 11.0788 120.329 11.2891C120.601 11.4938 120.958 11.5962 121.4 11.5962C122.075 11.5962 122.634 11.4053 123.077 11.0234C123.525 10.6361 123.749 10.0688 123.749 9.32178V8.5249Z"/>
<path d="M130.883 12.916H128.924V0H130.883V12.916Z"/>
<path d="M136.141 12.916H134.182V0H136.141V12.916Z"/>
<path d="M142.753 8.25098C142.753 9.1696 142.664 10.0661 142.487 10.9404C142.31 11.8148 142.036 12.6449 141.665 13.4307C141.3 14.2165 140.83 14.9414 140.254 15.6055H138.577C139.097 14.9027 139.535 14.1501 139.889 13.3477C140.243 12.5452 140.509 11.7124 140.686 10.8491C140.863 9.98584 140.951 9.11426 140.951 8.23438C140.951 7.33789 140.86 6.45247 140.677 5.57812C140.5 4.70378 140.235 3.86263 139.88 3.05469C139.526 2.24121 139.086 1.48307 138.561 0.780273H140.254C140.83 1.46094 141.3 2.20247 141.665 3.00488C142.036 3.80729 142.31 4.6512 142.487 5.53662C142.664 6.4165 142.753 7.32129 142.753 8.25098Z"/>
<path d="M154.439 0L154.107 3.1709L157.294 2.26611L157.544 4.03418L154.564 4.2998L156.498 6.88135L154.887 7.75293L153.484 4.97217L152.231 7.74463L150.554 6.88135L152.472 4.2998L149.508 4.02588L149.791 2.26611L152.92 3.1709L152.588 0H154.439Z"/>
<path d="M0 34.916C0 32.1546 2.23858 29.916 5 29.916H395C397.761 29.916 400 32.1546 400 34.916V64.916C400 67.6774 397.761 69.916 395 69.916H5C2.23857 69.916 0 67.6774 0 64.916V34.916Z"/>
</mask>
<path d="M6.83154 12.916L3.33691 2.78076H3.26221C3.27881 3.00765 3.29818 3.31755 3.32031 3.71045C3.34245 4.10335 3.36182 4.52393 3.37842 4.97217C3.39502 5.42041 3.40332 5.84928 3.40332 6.25879V12.916H1.59375V0.780273H4.39111L7.75293 10.4673H7.80273L11.2808 0.780273H14.0698V12.916H12.1689V6.15918C12.1689 5.78841 12.1745 5.38721 12.1855 4.95557C12.2021 4.52393 12.2188 4.11442 12.2354 3.72705C12.2575 3.33968 12.2741 3.02979 12.2852 2.79736H12.2188L8.59131 12.916H6.83154Z" fill="black"/>
<path d="M21.1789 3.55273C22.3411 3.55273 23.2182 3.81006 23.8103 4.32471C24.4079 4.83936 24.7068 5.64176 24.7068 6.73193V12.916H23.3205L22.947 11.6128H22.8806C22.6205 11.9448 22.3521 12.2188 22.0754 12.4346C21.7987 12.6504 21.4778 12.8109 21.1125 12.916C20.7528 13.0267 20.3129 13.082 19.7927 13.082C19.2449 13.082 18.7551 12.9824 18.3235 12.7832C17.8918 12.5785 17.5515 12.2686 17.3025 11.8535C17.0535 11.4385 16.9289 10.9128 16.9289 10.2764C16.9289 9.33008 17.2803 8.61898 17.9831 8.14307C18.6915 7.66715 19.7595 7.4043 21.1872 7.35449L22.781 7.29639V6.81494C22.781 6.17855 22.6316 5.72477 22.3328 5.45361C22.0395 5.18245 21.6244 5.04688 21.0876 5.04688C20.6283 5.04688 20.1829 5.11328 19.7512 5.24609C19.3196 5.37891 18.899 5.54215 18.4895 5.73584L17.8586 4.35791C18.3069 4.11995 18.816 3.92627 19.386 3.77686C19.9615 3.62744 20.5592 3.55273 21.1789 3.55273ZM22.7727 8.5249L21.5857 8.56641C20.6117 8.59961 19.9283 8.76562 19.5354 9.06445C19.1425 9.36328 18.946 9.77279 18.946 10.293C18.946 10.7467 19.0816 11.0788 19.3528 11.2891C19.6239 11.4938 19.9809 11.5962 20.4236 11.5962C21.0987 11.5962 21.6576 11.4053 22.1003 11.0234C22.5486 10.6361 22.7727 10.0688 22.7727 9.32178V8.5249Z" fill="black"/>
<path d="M27.0263 17C26.7386 17 26.4647 16.9779 26.2046 16.9336C25.9445 16.8949 25.7259 16.8478 25.5488 16.7925V15.2319C25.737 15.2873 25.9196 15.3288 26.0967 15.3564C26.2737 15.3841 26.4757 15.3979 26.7026 15.3979C27.0623 15.3979 27.3584 15.2983 27.5908 15.0991C27.8288 14.8999 27.9477 14.5208 27.9477 13.9619V3.72705H29.8984V14.1362C29.8984 14.6951 29.7988 15.1904 29.5996 15.6221C29.4059 16.0537 29.096 16.3913 28.6699 16.6348C28.2493 16.8783 27.7015 17 27.0263 17ZM27.8315 1.27832C27.8315 0.885417 27.9367 0.608724 28.147 0.448242C28.3628 0.28776 28.6256 0.20752 28.9355 0.20752C29.2344 0.20752 29.4917 0.28776 29.7075 0.448242C29.9289 0.608724 30.0395 0.885417 30.0395 1.27832C30.0395 1.66569 29.9289 1.94238 29.7075 2.1084C29.4917 2.26888 29.2344 2.34912 28.9355 2.34912C28.6256 2.34912 28.3628 2.26888 28.147 2.1084C27.9367 1.94238 27.8315 1.66569 27.8315 1.27832Z" fill="black"/>
<path d="M41.3405 8.30078C41.3405 9.06445 41.2409 9.74235 41.0417 10.3345C40.8425 10.9266 40.552 11.4274 40.1701 11.8369C39.7883 12.2409 39.329 12.5508 38.7922 12.7666C38.2554 12.9769 37.6495 13.082 36.9743 13.082C36.3435 13.082 35.7652 12.9769 35.2395 12.7666C34.7138 12.5508 34.2572 12.2409 33.8698 11.8369C33.488 11.4274 33.1919 10.9266 32.9817 10.3345C32.7714 9.74235 32.6662 9.06445 32.6662 8.30078C32.6662 7.28809 32.8405 6.43034 33.1892 5.72754C33.5433 5.01921 34.0469 4.47965 34.6999 4.10889C35.3529 3.73812 36.1304 3.55273 37.0324 3.55273C37.8791 3.55273 38.6262 3.73812 39.2737 4.10889C39.9211 4.47965 40.4275 5.01921 40.7927 5.72754C41.1579 6.43587 41.3405 7.29362 41.3405 8.30078ZM34.675 8.30078C34.675 8.97038 34.7553 9.54313 34.9157 10.019C35.0818 10.495 35.3363 10.8602 35.6794 11.1147C36.0225 11.3638 36.4652 11.4883 37.0075 11.4883C37.5499 11.4883 37.9926 11.3638 38.3357 11.1147C38.6788 10.8602 38.9306 10.495 39.091 10.019C39.2515 9.54313 39.3318 8.97038 39.3318 8.30078C39.3318 7.63118 39.2515 7.06396 39.091 6.59912C38.9306 6.12874 38.6788 5.77181 38.3357 5.52832C37.9926 5.2793 37.5471 5.15479 36.9992 5.15479C36.1913 5.15479 35.6019 5.42594 35.2312 5.96826C34.8604 6.51058 34.675 7.28809 34.675 8.30078Z" fill="black"/>
<path d="M48.7485 3.55273C48.9034 3.55273 49.0722 3.56104 49.2548 3.57764C49.4375 3.59424 49.5952 3.61637 49.728 3.64404L49.5454 5.47021C49.4292 5.43701 49.2853 5.41211 49.1137 5.39551C48.9477 5.37891 48.7983 5.37061 48.6655 5.37061C48.3169 5.37061 47.9848 5.42871 47.6694 5.54492C47.354 5.6556 47.0745 5.82715 46.831 6.05957C46.5875 6.28646 46.3966 6.57145 46.2583 6.91455C46.1199 7.25765 46.0507 7.65609 46.0507 8.10986V12.916H44.0918V3.72705H45.6191L45.8847 5.3457H45.976C46.1587 5.01921 46.3855 4.72038 46.6567 4.44922C46.9279 4.17806 47.2378 3.96224 47.5864 3.80176C47.9406 3.63574 48.3279 3.55273 48.7485 3.55273Z" fill="black"/>
<path d="M56.1518 8.25928C56.1518 7.32959 56.2403 6.42204 56.4174 5.53662C56.6 4.6512 56.8767 3.80729 57.2475 3.00488C57.6183 2.20247 58.0859 1.46094 58.6503 0.780273H60.352C59.5607 1.83724 58.963 3.00765 58.559 4.2915C58.1606 5.57536 57.9614 6.89242 57.9614 8.24268C57.9614 9.12256 58.0499 9.99414 58.227 10.8574C58.4041 11.7207 58.6697 12.5508 59.0239 13.3477C59.378 14.1501 59.8152 14.9027 60.3354 15.6055H58.6503C58.0859 14.9414 57.6183 14.2165 57.2475 13.4307C56.8767 12.6449 56.6 11.8148 56.4174 10.9404C56.2403 10.0661 56.1518 9.17236 56.1518 8.25928Z" fill="black"/>
<path d="M68.947 10.293C68.947 10.8962 68.8003 11.4053 68.507 11.8203C68.2137 12.2354 67.7848 12.5508 67.2204 12.7666C66.6615 12.9769 65.9753 13.082 65.1618 13.082C64.5199 13.082 63.9665 13.035 63.5016 12.9409C63.0423 12.8524 62.6079 12.714 62.1984 12.5259V10.8408C62.6356 11.0456 63.1253 11.2227 63.6677 11.3721C64.2155 11.5215 64.7329 11.5962 65.2199 11.5962C65.8618 11.5962 66.3239 11.4966 66.6061 11.2974C66.8884 11.0926 67.0295 10.8215 67.0295 10.4839C67.0295 10.2847 66.9714 10.1076 66.8552 9.95264C66.7445 9.79215 66.5342 9.62891 66.2243 9.46289C65.9199 9.29134 65.4717 9.08659 64.8796 8.84863C64.2985 8.61621 63.8088 8.38379 63.4103 8.15137C63.0119 7.91895 62.7103 7.63949 62.5055 7.31299C62.3008 6.98096 62.1984 6.55762 62.1984 6.04297C62.1984 5.22949 62.5194 4.61247 63.1613 4.19189C63.8088 3.76579 64.6637 3.55273 65.7262 3.55273C66.2907 3.55273 66.822 3.61084 67.32 3.72705C67.8236 3.83773 68.3161 4.00098 68.7975 4.2168L68.1833 5.68604C67.7682 5.50342 67.3504 5.354 66.9299 5.23779C66.5148 5.11605 66.0915 5.05518 65.6598 5.05518C65.1563 5.05518 64.7717 5.13265 64.506 5.2876C64.2459 5.44255 64.1159 5.6639 64.1159 5.95166C64.1159 6.16748 64.1795 6.3501 64.3068 6.49951C64.4341 6.64893 64.6527 6.79834 64.9626 6.94775C65.278 7.09717 65.7152 7.28255 66.2741 7.50391C66.822 7.71419 67.2951 7.93555 67.6935 8.16797C68.0975 8.39486 68.4074 8.67432 68.6232 9.00635C68.839 9.33838 68.947 9.76725 68.947 10.293Z" fill="black"/>
<path d="M75.226 3.55273C76.045 3.55273 76.7478 3.72152 77.3344 4.05908C77.921 4.39665 78.372 4.87533 78.6874 5.49512C79.0029 6.11491 79.1606 6.85645 79.1606 7.71973V8.76562H73.0263C73.0484 9.65658 73.2864 10.3428 73.7402 10.8242C74.1995 11.3057 74.8414 11.5464 75.6659 11.5464C76.2525 11.5464 76.7782 11.491 77.2431 11.3804C77.7135 11.2642 78.1977 11.0954 78.6957 10.874V12.4595C78.2364 12.6753 77.7688 12.833 77.2929 12.9326C76.817 13.0322 76.247 13.082 75.5829 13.082C74.6809 13.082 73.8868 12.9077 73.2006 12.5591C72.5199 12.2049 71.9859 11.6792 71.5986 10.9819C71.2167 10.2847 71.0258 9.41862 71.0258 8.38379C71.0258 7.35449 71.2001 6.48014 71.5488 5.76074C71.8974 5.04134 72.3871 4.49349 73.018 4.11719C73.6488 3.74089 74.3849 3.55273 75.226 3.55273ZM75.226 5.02197C74.6117 5.02197 74.1137 5.22119 73.7319 5.61963C73.3556 6.01807 73.1342 6.60189 73.0678 7.37109H77.2514C77.2459 6.91178 77.1684 6.50505 77.019 6.15088C76.8751 5.79671 76.6537 5.52002 76.3549 5.3208C76.0616 5.12158 75.6853 5.02197 75.226 5.02197Z" fill="black"/>
<path d="M83.8293 12.916H81.8703V0H83.8293V12.916Z" fill="black"/>
<path d="M90.789 3.55273C91.608 3.55273 92.3108 3.72152 92.8974 4.05908C93.484 4.39665 93.935 4.87533 94.2504 5.49512C94.5658 6.11491 94.7235 6.85645 94.7235 7.71973V8.76562H88.5893C88.6114 9.65658 88.8493 10.3428 89.3031 10.8242C89.7624 11.3057 90.4044 11.5464 91.2289 11.5464C91.8155 11.5464 92.3412 11.491 92.8061 11.3804C93.2764 11.2642 93.7606 11.0954 94.2587 10.874V12.4595C93.7994 12.6753 93.3318 12.833 92.8559 12.9326C92.3799 13.0322 91.81 13.082 91.1459 13.082C90.2439 13.082 89.4498 12.9077 88.7636 12.5591C88.0829 12.2049 87.5489 11.6792 87.1615 10.9819C86.7797 10.2847 86.5888 9.41862 86.5888 8.38379C86.5888 7.35449 86.7631 6.48014 87.1117 5.76074C87.4604 5.04134 87.9501 4.49349 88.581 4.11719C89.2118 3.74089 89.9478 3.55273 90.789 3.55273ZM90.789 5.02197C90.1747 5.02197 89.6767 5.22119 89.2948 5.61963C88.9185 6.01807 88.6972 6.60189 88.6308 7.37109H92.8144C92.8088 6.91178 92.7313 6.50505 92.5819 6.15088C92.4381 5.79671 92.2167 5.52002 91.9179 5.3208C91.6246 5.12158 91.2483 5.02197 90.789 5.02197Z" fill="black"/>
<path d="M101.135 13.082C100.267 13.082 99.514 12.9132 98.8776 12.5757C98.2412 12.2381 97.7514 11.7207 97.4083 11.0234C97.0652 10.3262 96.8937 9.44076 96.8937 8.36719C96.8937 7.24935 97.0818 6.33626 97.4581 5.62793C97.8344 4.9196 98.3546 4.39665 99.0187 4.05908C99.6883 3.72152 100.455 3.55273 101.318 3.55273C101.866 3.55273 102.361 3.60807 102.804 3.71875C103.252 3.82389 103.631 3.95394 103.941 4.10889L103.36 5.66943C103.022 5.53109 102.677 5.41488 102.322 5.3208C101.968 5.22673 101.628 5.17969 101.301 5.17969C100.765 5.17969 100.316 5.29867 99.9567 5.53662C99.6025 5.77458 99.3369 6.12874 99.1598 6.59912C98.9883 7.0695 98.9025 7.65332 98.9025 8.35059C98.9025 9.02572 98.991 9.5957 99.1681 10.0605C99.3452 10.5199 99.608 10.8685 99.9567 11.1064C100.305 11.3389 100.734 11.4551 101.243 11.4551C101.747 11.4551 102.198 11.3942 102.596 11.2725C102.995 11.1507 103.371 10.993 103.725 10.7993V12.4927C103.377 12.6919 103.003 12.8385 102.605 12.9326C102.206 13.0322 101.716 13.082 101.135 13.082Z" fill="black"/>
<path d="M109.813 11.5049C110.068 11.5049 110.32 11.4827 110.569 11.4385C110.818 11.3887 111.045 11.3306 111.249 11.2642V12.7417C111.034 12.8358 110.754 12.916 110.411 12.9824C110.068 13.0488 109.711 13.082 109.34 13.082C108.82 13.082 108.352 12.9963 107.937 12.8247C107.522 12.6476 107.193 12.346 106.95 11.9199C106.706 11.4938 106.584 10.9045 106.584 10.1519V5.21289H105.331V4.34131L106.676 3.65234L107.315 1.68506H108.543V3.72705H111.175V5.21289H108.543V10.127C108.543 10.5918 108.66 10.9377 108.892 11.1646C109.124 11.3914 109.432 11.5049 109.813 11.5049Z" fill="black"/>
<path d="M122.156 3.55273C123.318 3.55273 124.195 3.81006 124.787 4.32471C125.385 4.83936 125.683 5.64176 125.683 6.73193V12.916H124.297L123.924 11.6128H123.857C123.597 11.9448 123.329 12.2188 123.052 12.4346C122.775 12.6504 122.454 12.8109 122.089 12.916C121.73 13.0267 121.29 13.082 120.769 13.082C120.222 13.082 119.732 12.9824 119.3 12.7832C118.869 12.5785 118.528 12.2686 118.279 11.8535C118.03 11.4385 117.906 10.9128 117.906 10.2764C117.906 9.33008 118.257 8.61898 118.96 8.14307C119.668 7.66715 120.736 7.4043 122.164 7.35449L123.758 7.29639V6.81494C123.758 6.17855 123.608 5.72477 123.309 5.45361C123.016 5.18245 122.601 5.04688 122.064 5.04688C121.605 5.04688 121.16 5.11328 120.728 5.24609C120.296 5.37891 119.876 5.54215 119.466 5.73584L118.835 4.35791C119.284 4.11995 119.793 3.92627 120.363 3.77686C120.938 3.62744 121.536 3.55273 122.156 3.55273ZM123.749 8.5249L122.562 8.56641C121.588 8.59961 120.905 8.76562 120.512 9.06445C120.119 9.36328 119.923 9.77279 119.923 10.293C119.923 10.7467 120.058 11.0788 120.329 11.2891C120.601 11.4938 120.958 11.5962 121.4 11.5962C122.075 11.5962 122.634 11.4053 123.077 11.0234C123.525 10.6361 123.749 10.0688 123.749 9.32178V8.5249Z" fill="black"/>
<path d="M130.883 12.916H128.924V0H130.883V12.916Z" fill="black"/>
<path d="M136.141 12.916H134.182V0H136.141V12.916Z" fill="black"/>
<path d="M142.753 8.25098C142.753 9.1696 142.664 10.0661 142.487 10.9404C142.31 11.8148 142.036 12.6449 141.665 13.4307C141.3 14.2165 140.83 14.9414 140.254 15.6055H138.577C139.097 14.9027 139.535 14.1501 139.889 13.3477C140.243 12.5452 140.509 11.7124 140.686 10.8491C140.863 9.98584 140.951 9.11426 140.951 8.23438C140.951 7.33789 140.86 6.45247 140.677 5.57812C140.5 4.70378 140.235 3.86263 139.88 3.05469C139.526 2.24121 139.086 1.48307 138.561 0.780273H140.254C140.83 1.46094 141.3 2.20247 141.665 3.00488C142.036 3.80729 142.31 4.6512 142.487 5.53662C142.664 6.4165 142.753 7.32129 142.753 8.25098Z" fill="black"/>
<path d="M154.439 0L154.107 3.1709L157.294 2.26611L157.544 4.03418L154.564 4.2998L156.498 6.88135L154.887 7.75293L153.484 4.97217L152.231 7.74463L150.554 6.88135L152.472 4.2998L149.508 4.02588L149.791 2.26611L152.92 3.1709L152.588 0H154.439Z" fill="black"/>
<path d="M0 34.916C0 32.1546 2.23858 29.916 5 29.916H395C397.761 29.916 400 32.1546 400 34.916V64.916C400 67.6774 397.761 69.916 395 69.916H5C2.23857 69.916 0 67.6774 0 64.916V34.916Z" fill="white"/>
<path d="M6.83154 12.916L3.33691 2.78076H3.26221C3.27881 3.00765 3.29818 3.31755 3.32031 3.71045C3.34245 4.10335 3.36182 4.52393 3.37842 4.97217C3.39502 5.42041 3.40332 5.84928 3.40332 6.25879V12.916H1.59375V0.780273H4.39111L7.75293 10.4673H7.80273L11.2808 0.780273H14.0698V12.916H12.1689V6.15918C12.1689 5.78841 12.1745 5.38721 12.1855 4.95557C12.2021 4.52393 12.2188 4.11442 12.2354 3.72705C12.2575 3.33968 12.2741 3.02979 12.2852 2.79736H12.2188L8.59131 12.916H6.83154Z" stroke="black" stroke-opacity="0.5" stroke-width="2" mask="url(#path-1-inside-1_354_157)"/>
<path d="M21.1789 3.55273C22.3411 3.55273 23.2182 3.81006 23.8103 4.32471C24.4079 4.83936 24.7068 5.64176 24.7068 6.73193V12.916H23.3205L22.947 11.6128H22.8806C22.6205 11.9448 22.3521 12.2188 22.0754 12.4346C21.7987 12.6504 21.4778 12.8109 21.1125 12.916C20.7528 13.0267 20.3129 13.082 19.7927 13.082C19.2449 13.082 18.7551 12.9824 18.3235 12.7832C17.8918 12.5785 17.5515 12.2686 17.3025 11.8535C17.0535 11.4385 16.9289 10.9128 16.9289 10.2764C16.9289 9.33008 17.2803 8.61898 17.9831 8.14307C18.6915 7.66715 19.7595 7.4043 21.1872 7.35449L22.781 7.29639V6.81494C22.781 6.17855 22.6316 5.72477 22.3328 5.45361C22.0395 5.18245 21.6244 5.04688 21.0876 5.04688C20.6283 5.04688 20.1829 5.11328 19.7512 5.24609C19.3196 5.37891 18.899 5.54215 18.4895 5.73584L17.8586 4.35791C18.3069 4.11995 18.816 3.92627 19.386 3.77686C19.9615 3.62744 20.5592 3.55273 21.1789 3.55273ZM22.7727 8.5249L21.5857 8.56641C20.6117 8.59961 19.9283 8.76562 19.5354 9.06445C19.1425 9.36328 18.946 9.77279 18.946 10.293C18.946 10.7467 19.0816 11.0788 19.3528 11.2891C19.6239 11.4938 19.9809 11.5962 20.4236 11.5962C21.0987 11.5962 21.6576 11.4053 22.1003 11.0234C22.5486 10.6361 22.7727 10.0688 22.7727 9.32178V8.5249Z" stroke="black" stroke-opacity="0.5" stroke-width="2" mask="url(#path-1-inside-1_354_157)"/>
<path d="M27.0263 17C26.7386 17 26.4647 16.9779 26.2046 16.9336C25.9445 16.8949 25.7259 16.8478 25.5488 16.7925V15.2319C25.737 15.2873 25.9196 15.3288 26.0967 15.3564C26.2737 15.3841 26.4757 15.3979 26.7026 15.3979C27.0623 15.3979 27.3584 15.2983 27.5908 15.0991C27.8288 14.8999 27.9477 14.5208 27.9477 13.9619V3.72705H29.8984V14.1362C29.8984 14.6951 29.7988 15.1904 29.5996 15.6221C29.4059 16.0537 29.096 16.3913 28.6699 16.6348C28.2493 16.8783 27.7015 17 27.0263 17ZM27.8315 1.27832C27.8315 0.885417 27.9367 0.608724 28.147 0.448242C28.3628 0.28776 28.6256 0.20752 28.9355 0.20752C29.2344 0.20752 29.4917 0.28776 29.7075 0.448242C29.9289 0.608724 30.0395 0.885417 30.0395 1.27832C30.0395 1.66569 29.9289 1.94238 29.7075 2.1084C29.4917 2.26888 29.2344 2.34912 28.9355 2.34912C28.6256 2.34912 28.3628 2.26888 28.147 2.1084C27.9367 1.94238 27.8315 1.66569 27.8315 1.27832Z" stroke="black" stroke-opacity="0.5" stroke-width="2" mask="url(#path-1-inside-1_354_157)"/>
<path d="M41.3405 8.30078C41.3405 9.06445 41.2409 9.74235 41.0417 10.3345C40.8425 10.9266 40.552 11.4274 40.1701 11.8369C39.7883 12.2409 39.329 12.5508 38.7922 12.7666C38.2554 12.9769 37.6495 13.082 36.9743 13.082C36.3435 13.082 35.7652 12.9769 35.2395 12.7666C34.7138 12.5508 34.2572 12.2409 33.8698 11.8369C33.488 11.4274 33.1919 10.9266 32.9817 10.3345C32.7714 9.74235 32.6662 9.06445 32.6662 8.30078C32.6662 7.28809 32.8405 6.43034 33.1892 5.72754C33.5433 5.01921 34.0469 4.47965 34.6999 4.10889C35.3529 3.73812 36.1304 3.55273 37.0324 3.55273C37.8791 3.55273 38.6262 3.73812 39.2737 4.10889C39.9211 4.47965 40.4275 5.01921 40.7927 5.72754C41.1579 6.43587 41.3405 7.29362 41.3405 8.30078ZM34.675 8.30078C34.675 8.97038 34.7553 9.54313 34.9157 10.019C35.0818 10.495 35.3363 10.8602 35.6794 11.1147C36.0225 11.3638 36.4652 11.4883 37.0075 11.4883C37.5499 11.4883 37.9926 11.3638 38.3357 11.1147C38.6788 10.8602 38.9306 10.495 39.091 10.019C39.2515 9.54313 39.3318 8.97038 39.3318 8.30078C39.3318 7.63118 39.2515 7.06396 39.091 6.59912C38.9306 6.12874 38.6788 5.77181 38.3357 5.52832C37.9926 5.2793 37.5471 5.15479 36.9992 5.15479C36.1913 5.15479 35.6019 5.42594 35.2312 5.96826C34.8604 6.51058 34.675 7.28809 34.675 8.30078Z" stroke="black" stroke-opacity="0.5" stroke-width="2" mask="url(#path-1-inside-1_354_157)"/>
<path d="M48.7485 3.55273C48.9034 3.55273 49.0722 3.56104 49.2548 3.57764C49.4375 3.59424 49.5952 3.61637 49.728 3.64404L49.5454 5.47021C49.4292 5.43701 49.2853 5.41211 49.1137 5.39551C48.9477 5.37891 48.7983 5.37061 48.6655 5.37061C48.3169 5.37061 47.9848 5.42871 47.6694 5.54492C47.354 5.6556 47.0745 5.82715 46.831 6.05957C46.5875 6.28646 46.3966 6.57145 46.2583 6.91455C46.1199 7.25765 46.0507 7.65609 46.0507 8.10986V12.916H44.0918V3.72705H45.6191L45.8847 5.3457H45.976C46.1587 5.01921 46.3855 4.72038 46.6567 4.44922C46.9279 4.17806 47.2378 3.96224 47.5864 3.80176C47.9406 3.63574 48.3279 3.55273 48.7485 3.55273Z" stroke="black" stroke-opacity="0.5" stroke-width="2" mask="url(#path-1-inside-1_354_157)"/>
<path d="M56.1518 8.25928C56.1518 7.32959 56.2403 6.42204 56.4174 5.53662C56.6 4.6512 56.8767 3.80729 57.2475 3.00488C57.6183 2.20247 58.0859 1.46094 58.6503 0.780273H60.352C59.5607 1.83724 58.963 3.00765 58.559 4.2915C58.1606 5.57536 57.9614 6.89242 57.9614 8.24268C57.9614 9.12256 58.0499 9.99414 58.227 10.8574C58.4041 11.7207 58.6697 12.5508 59.0239 13.3477C59.378 14.1501 59.8152 14.9027 60.3354 15.6055H58.6503C58.0859 14.9414 57.6183 14.2165 57.2475 13.4307C56.8767 12.6449 56.6 11.8148 56.4174 10.9404C56.2403 10.0661 56.1518 9.17236 56.1518 8.25928Z" stroke="black" stroke-opacity="0.5" stroke-width="2" mask="url(#path-1-inside-1_354_157)"/>
<path d="M68.947 10.293C68.947 10.8962 68.8003 11.4053 68.507 11.8203C68.2137 12.2354 67.7848 12.5508 67.2204 12.7666C66.6615 12.9769 65.9753 13.082 65.1618 13.082C64.5199 13.082 63.9665 13.035 63.5016 12.9409C63.0423 12.8524 62.6079 12.714 62.1984 12.5259V10.8408C62.6356 11.0456 63.1253 11.2227 63.6677 11.3721C64.2155 11.5215 64.7329 11.5962 65.2199 11.5962C65.8618 11.5962 66.3239 11.4966 66.6061 11.2974C66.8884 11.0926 67.0295 10.8215 67.0295 10.4839C67.0295 10.2847 66.9714 10.1076 66.8552 9.95264C66.7445 9.79215 66.5342 9.62891 66.2243 9.46289C65.9199 9.29134 65.4717 9.08659 64.8796 8.84863C64.2985 8.61621 63.8088 8.38379 63.4103 8.15137C63.0119 7.91895 62.7103 7.63949 62.5055 7.31299C62.3008 6.98096 62.1984 6.55762 62.1984 6.04297C62.1984 5.22949 62.5194 4.61247 63.1613 4.19189C63.8088 3.76579 64.6637 3.55273 65.7262 3.55273C66.2907 3.55273 66.822 3.61084 67.32 3.72705C67.8236 3.83773 68.3161 4.00098 68.7975 4.2168L68.1833 5.68604C67.7682 5.50342 67.3504 5.354 66.9299 5.23779C66.5148 5.11605 66.0915 5.05518 65.6598 5.05518C65.1563 5.05518 64.7717 5.13265 64.506 5.2876C64.2459 5.44255 64.1159 5.6639 64.1159 5.95166C64.1159 6.16748 64.1795 6.3501 64.3068 6.49951C64.4341 6.64893 64.6527 6.79834 64.9626 6.94775C65.278 7.09717 65.7152 7.28255 66.2741 7.50391C66.822 7.71419 67.2951 7.93555 67.6935 8.16797C68.0975 8.39486 68.4074 8.67432 68.6232 9.00635C68.839 9.33838 68.947 9.76725 68.947 10.293Z" stroke="black" stroke-opacity="0.5" stroke-width="2" mask="url(#path-1-inside-1_354_157)"/>
<path d="M75.226 3.55273C76.045 3.55273 76.7478 3.72152 77.3344 4.05908C77.921 4.39665 78.372 4.87533 78.6874 5.49512C79.0029 6.11491 79.1606 6.85645 79.1606 7.71973V8.76562H73.0263C73.0484 9.65658 73.2864 10.3428 73.7402 10.8242C74.1995 11.3057 74.8414 11.5464 75.6659 11.5464C76.2525 11.5464 76.7782 11.491 77.2431 11.3804C77.7135 11.2642 78.1977 11.0954 78.6957 10.874V12.4595C78.2364 12.6753 77.7688 12.833 77.2929 12.9326C76.817 13.0322 76.247 13.082 75.5829 13.082C74.6809 13.082 73.8868 12.9077 73.2006 12.5591C72.5199 12.2049 71.9859 11.6792 71.5986 10.9819C71.2167 10.2847 71.0258 9.41862 71.0258 8.38379C71.0258 7.35449 71.2001 6.48014 71.5488 5.76074C71.8974 5.04134 72.3871 4.49349 73.018 4.11719C73.6488 3.74089 74.3849 3.55273 75.226 3.55273ZM75.226 5.02197C74.6117 5.02197 74.1137 5.22119 73.7319 5.61963C73.3556 6.01807 73.1342 6.60189 73.0678 7.37109H77.2514C77.2459 6.91178 77.1684 6.50505 77.019 6.15088C76.8751 5.79671 76.6537 5.52002 76.3549 5.3208C76.0616 5.12158 75.6853 5.02197 75.226 5.02197Z" stroke="black" stroke-opacity="0.5" stroke-width="2" mask="url(#path-1-inside-1_354_157)"/>
<path d="M83.8293 12.916H81.8703V0H83.8293V12.916Z" stroke="black" stroke-opacity="0.5" stroke-width="2" mask="url(#path-1-inside-1_354_157)"/>
<path d="M90.789 3.55273C91.608 3.55273 92.3108 3.72152 92.8974 4.05908C93.484 4.39665 93.935 4.87533 94.2504 5.49512C94.5658 6.11491 94.7235 6.85645 94.7235 7.71973V8.76562H88.5893C88.6114 9.65658 88.8493 10.3428 89.3031 10.8242C89.7624 11.3057 90.4044 11.5464 91.2289 11.5464C91.8155 11.5464 92.3412 11.491 92.8061 11.3804C93.2764 11.2642 93.7606 11.0954 94.2587 10.874V12.4595C93.7994 12.6753 93.3318 12.833 92.8559 12.9326C92.3799 13.0322 91.81 13.082 91.1459 13.082C90.2439 13.082 89.4498 12.9077 88.7636 12.5591C88.0829 12.2049 87.5489 11.6792 87.1615 10.9819C86.7797 10.2847 86.5888 9.41862 86.5888 8.38379C86.5888 7.35449 86.7631 6.48014 87.1117 5.76074C87.4604 5.04134 87.9501 4.49349 88.581 4.11719C89.2118 3.74089 89.9478 3.55273 90.789 3.55273ZM90.789 5.02197C90.1747 5.02197 89.6767 5.22119 89.2948 5.61963C88.9185 6.01807 88.6972 6.60189 88.6308 7.37109H92.8144C92.8088 6.91178 92.7313 6.50505 92.5819 6.15088C92.4381 5.79671 92.2167 5.52002 91.9179 5.3208C91.6246 5.12158 91.2483 5.02197 90.789 5.02197Z" stroke="black" stroke-opacity="0.5" stroke-width="2" mask="url(#path-1-inside-1_354_157)"/>
<path d="M101.135 13.082C100.267 13.082 99.514 12.9132 98.8776 12.5757C98.2412 12.2381 97.7514 11.7207 97.4083 11.0234C97.0652 10.3262 96.8937 9.44076 96.8937 8.36719C96.8937 7.24935 97.0818 6.33626 97.4581 5.62793C97.8344 4.9196 98.3546 4.39665 99.0187 4.05908C99.6883 3.72152 100.455 3.55273 101.318 3.55273C101.866 3.55273 102.361 3.60807 102.804 3.71875C103.252 3.82389 103.631 3.95394 103.941 4.10889L103.36 5.66943C103.022 5.53109 102.677 5.41488 102.322 5.3208C101.968 5.22673 101.628 5.17969 101.301 5.17969C100.765 5.17969 100.316 5.29867 99.9567 5.53662C99.6025 5.77458 99.3369 6.12874 99.1598 6.59912C98.9883 7.0695 98.9025 7.65332 98.9025 8.35059C98.9025 9.02572 98.991 9.5957 99.1681 10.0605C99.3452 10.5199 99.608 10.8685 99.9567 11.1064C100.305 11.3389 100.734 11.4551 101.243 11.4551C101.747 11.4551 102.198 11.3942 102.596 11.2725C102.995 11.1507 103.371 10.993 103.725 10.7993V12.4927C103.377 12.6919 103.003 12.8385 102.605 12.9326C102.206 13.0322 101.716 13.082 101.135 13.082Z" stroke="black" stroke-opacity="0.5" stroke-width="2" mask="url(#path-1-inside-1_354_157)"/>
<path d="M109.813 11.5049C110.068 11.5049 110.32 11.4827 110.569 11.4385C110.818 11.3887 111.045 11.3306 111.249 11.2642V12.7417C111.034 12.8358 110.754 12.916 110.411 12.9824C110.068 13.0488 109.711 13.082 109.34 13.082C108.82 13.082 108.352 12.9963 107.937 12.8247C107.522 12.6476 107.193 12.346 106.95 11.9199C106.706 11.4938 106.584 10.9045 106.584 10.1519V5.21289H105.331V4.34131L106.676 3.65234L107.315 1.68506H108.543V3.72705H111.175V5.21289H108.543V10.127C108.543 10.5918 108.66 10.9377 108.892 11.1646C109.124 11.3914 109.432 11.5049 109.813 11.5049Z" stroke="black" stroke-opacity="0.5" stroke-width="2" mask="url(#path-1-inside-1_354_157)"/>
<path d="M122.156 3.55273C123.318 3.55273 124.195 3.81006 124.787 4.32471C125.385 4.83936 125.683 5.64176 125.683 6.73193V12.916H124.297L123.924 11.6128H123.857C123.597 11.9448 123.329 12.2188 123.052 12.4346C122.775 12.6504 122.454 12.8109 122.089 12.916C121.73 13.0267 121.29 13.082 120.769 13.082C120.222 13.082 119.732 12.9824 119.3 12.7832C118.869 12.5785 118.528 12.2686 118.279 11.8535C118.03 11.4385 117.906 10.9128 117.906 10.2764C117.906 9.33008 118.257 8.61898 118.96 8.14307C119.668 7.66715 120.736 7.4043 122.164 7.35449L123.758 7.29639V6.81494C123.758 6.17855 123.608 5.72477 123.309 5.45361C123.016 5.18245 122.601 5.04688 122.064 5.04688C121.605 5.04688 121.16 5.11328 120.728 5.24609C120.296 5.37891 119.876 5.54215 119.466 5.73584L118.835 4.35791C119.284 4.11995 119.793 3.92627 120.363 3.77686C120.938 3.62744 121.536 3.55273 122.156 3.55273ZM123.749 8.5249L122.562 8.56641C121.588 8.59961 120.905 8.76562 120.512 9.06445C120.119 9.36328 119.923 9.77279 119.923 10.293C119.923 10.7467 120.058 11.0788 120.329 11.2891C120.601 11.4938 120.958 11.5962 121.4 11.5962C122.075 11.5962 122.634 11.4053 123.077 11.0234C123.525 10.6361 123.749 10.0688 123.749 9.32178V8.5249Z" stroke="black" stroke-opacity="0.5" stroke-width="2" mask="url(#path-1-inside-1_354_157)"/>
<path d="M130.883 12.916H128.924V0H130.883V12.916Z" stroke="black" stroke-opacity="0.5" stroke-width="2" mask="url(#path-1-inside-1_354_157)"/>
<path d="M136.141 12.916H134.182V0H136.141V12.916Z" stroke="black" stroke-opacity="0.5" stroke-width="2" mask="url(#path-1-inside-1_354_157)"/>
<path d="M142.753 8.25098C142.753 9.1696 142.664 10.0661 142.487 10.9404C142.31 11.8148 142.036 12.6449 141.665 13.4307C141.3 14.2165 140.83 14.9414 140.254 15.6055H138.577C139.097 14.9027 139.535 14.1501 139.889 13.3477C140.243 12.5452 140.509 11.7124 140.686 10.8491C140.863 9.98584 140.951 9.11426 140.951 8.23438C140.951 7.33789 140.86 6.45247 140.677 5.57812C140.5 4.70378 140.235 3.86263 139.88 3.05469C139.526 2.24121 139.086 1.48307 138.561 0.780273H140.254C140.83 1.46094 141.3 2.20247 141.665 3.00488C142.036 3.80729 142.31 4.6512 142.487 5.53662C142.664 6.4165 142.753 7.32129 142.753 8.25098Z" stroke="black" stroke-opacity="0.5" stroke-width="2" mask="url(#path-1-inside-1_354_157)"/>
<path d="M154.439 0L154.107 3.1709L157.294 2.26611L157.544 4.03418L154.564 4.2998L156.498 6.88135L154.887 7.75293L153.484 4.97217L152.231 7.74463L150.554 6.88135L152.472 4.2998L149.508 4.02588L149.791 2.26611L152.92 3.1709L152.588 0H154.439Z" stroke="black" stroke-opacity="0.5" stroke-width="2" mask="url(#path-1-inside-1_354_157)"/>
<path d="M0 34.916C0 32.1546 2.23858 29.916 5 29.916H395C397.761 29.916 400 32.1546 400 34.916V64.916C400 67.6774 397.761 69.916 395 69.916H5C2.23857 69.916 0 67.6774 0 64.916V34.916Z" stroke="black" stroke-opacity="0.5" stroke-width="2" mask="url(#path-1-inside-1_354_157)"/>
</svg>
