<svg width="29" height="29" viewBox="0 0 29 29" fill="none" xmlns="http://www.w3.org/2000/svg">
<g clip-path="url(#clip0_19_394)">
<path d="M16.2633 14.8518L2.14551 28.4463C1.48439 27.9945 1.09187 27.243 1.09881 26.4423V3.26138C1.09187 2.46066 1.48439 1.70914 2.14551 1.25732L16.2633 14.8518Z" fill="#2196F3"/>
<path d="M21.2033 10.1036L16.2633 14.8521L2.14551 1.25759C2.1987 1.21636 2.25411 1.17801 2.31143 1.1427C3.05757 0.69047 3.98956 0.67587 4.74953 1.10441L21.2033 10.1036Z" fill="#4CAF50"/>
<path d="M27.19 14.852C27.1992 15.7559 26.708 16.5909 25.9135 17.0221L21.2033 19.6005L16.2634 14.852L21.2033 10.1035L25.9135 12.682C26.708 13.1132 27.1992 13.9481 27.19 14.852Z" fill="#F0BB1F"/>
<path d="M21.2033 19.6006L4.74953 28.5997C3.98789 29.0216 3.05943 29.007 2.31143 28.5614C2.25411 28.5261 2.1987 28.4878 2.14551 28.4466L16.2634 14.8521L21.2033 19.6006Z" fill="#F15A2B"/>
</g>
<defs>
<clipPath id="clip0_19_394">
<rect width="28.1133" height="28.1133" fill="white" transform="translate(0.0877991 0.792969)"/>
</clipPath>
</defs>
</svg>
