<svg width="33" height="33" viewBox="0 0 33 33" fill="none" xmlns="http://www.w3.org/2000/svg">
<path d="M12.8013 9.22619C12.6738 9.3534 12.5727 9.50449 12.5037 9.67083C12.4347 9.83717 12.3992 10.0155 12.3992 10.1956C12.3992 10.3756 12.4347 10.554 12.5037 10.7203C12.5727 10.8866 12.6738 11.0377 12.8013 11.1649L18.1363 16.4999L12.8013 21.8349C12.5442 22.092 12.3998 22.4407 12.3998 22.8043C12.3998 23.1679 12.5442 23.5166 12.8013 23.7737C13.0584 24.0308 13.4071 24.1752 13.7707 24.1752C14.1342 24.1752 14.4829 24.0308 14.74 23.7737L21.0513 17.4624C21.1787 17.3352 21.2799 17.1841 21.3489 17.0178C21.4179 16.8515 21.4534 16.6731 21.4534 16.4931C21.4534 16.313 21.4179 16.1347 21.3489 15.9683C21.2799 15.802 21.1787 15.6509 21.0513 15.5237L14.74 9.21244C14.2175 8.68994 13.3375 8.68994 12.8013 9.22619Z" fill="black"/>
</svg>
