<svg width="76" height="21" viewBox="0 0 76 21" fill="none" xmlns="http://www.w3.org/2000/svg">
<path d="M8.69713 3.65276H4.75003V5.2271H6.8529C6.57177 5.98054 5.8858 6.4416 4.83999 6.4416C3.31063 6.4416 2.36602 5.46325 2.36602 4.12506C2.36602 2.74189 3.35561 1.76355 4.68256 1.76355C5.57094 1.76355 6.27939 2.16838 6.6055 2.68566L8.13487 1.80853C7.47139 0.751468 6.20067 0.00927734 4.6938 0.00927734C2.37727 0.00927734 0.566772 1.83102 0.566772 4.11382C0.566772 6.37412 2.34353 8.19586 4.8175 8.19586C7.02158 8.19586 8.69713 6.73397 8.69713 4.32748V3.65276Z" fill="white"/>
<path d="M10.9485 6.30665V4.91223H13.7598V3.20295H10.9485V1.89849H14.0409V0.166712H9.14923V8.03843H14.0972V6.30665H10.9485Z" fill="white"/>
<path d="M19.8353 0.166712H13.9878V1.89849H16.0119V8.03843H17.8112V1.89849H19.8353V0.166712Z" fill="white"/>
<path d="M22.3098 0.166712V8.03843H24.109V0.166712H22.3098Z" fill="white"/>
<path d="M30.1845 0.166712H24.337V1.89849H26.3611V8.03843H28.1604V1.89849H30.1845V0.166712Z" fill="white"/>
<path d="M36.4149 8.19586C38.6752 8.19586 40.5082 6.4191 40.5082 4.10257C40.5082 1.78604 38.6752 0.00927734 36.4149 0.00927734C34.1546 0.00927734 32.3216 1.78604 32.3216 4.10257C32.3216 6.4191 34.1546 8.19586 36.4149 8.19586ZM36.4149 6.4416C35.1329 6.4416 34.1208 5.50823 34.1208 4.10257C34.1208 2.69691 35.1329 1.76355 36.4149 1.76355C37.6968 1.76355 38.7089 2.69691 38.7089 4.10257C38.7089 5.50823 37.6968 6.4416 36.4149 6.4416Z" fill="white"/>
<path d="M45.3446 0.166712V4.43993L42.3084 0.166712H40.959V8.03843H42.7582V3.76521L45.7944 8.03843H47.1439V0.166712H45.3446Z" fill="white"/>
<path d="M8.69713 17.0234V17.3271C8.69713 18.3091 8.34853 19.1376 7.65132 19.8123C6.95411 20.4795 6.03574 20.8131 4.89622 20.8131C3.69672 20.8131 2.70713 20.4233 1.92745 19.6436C1.14778 18.8564 0.757943 17.8931 0.757943 16.7535C0.757943 15.614 1.14403 14.6544 1.91621 13.8747C2.68839 13.0876 3.66673 12.694 4.85124 12.694C5.57094 12.694 6.23066 12.8664 6.83041 13.2113C7.43766 13.5561 7.90621 14.0172 8.23607 14.5944L7.70754 14.9093C7.44515 14.4145 7.05532 14.0172 6.53803 13.7173C6.02824 13.4174 5.46598 13.2675 4.85124 13.2675C3.83166 13.2675 2.99201 13.6049 2.33229 14.2796C1.68006 14.9468 1.35394 15.7715 1.35394 16.7535C1.35394 17.7356 1.68381 18.564 2.34353 19.2388C3.00326 19.906 3.85415 20.2396 4.89622 20.2396C5.81833 20.2396 6.56427 19.9884 7.13403 19.4862C7.7038 18.9839 8.02241 18.3504 8.08988 17.5857H4.75003V17.0234H8.69713Z" fill="white"/>
<path d="M16.6794 19.6323C15.8922 20.4195 14.9326 20.8131 13.8006 20.8131C12.6685 20.8131 11.7089 20.4195 10.9218 19.6323C10.1346 18.8377 9.74101 17.8781 9.74101 16.7535C9.74101 15.629 10.1346 14.6732 10.9218 13.886C11.7089 13.0913 12.6685 12.694 13.8006 12.694C14.9326 12.694 15.8922 13.0913 16.6794 13.886C17.4665 14.6732 17.8601 15.629 17.8601 16.7535C17.8601 17.8781 17.4665 18.8377 16.6794 19.6323ZM11.3378 19.2275C12.0126 19.9022 12.8335 20.2396 13.8006 20.2396C14.7677 20.2396 15.5848 19.9022 16.252 19.2275C16.9268 18.5453 17.2641 17.7206 17.2641 16.7535C17.2641 15.7864 16.9268 14.9655 16.252 14.2908C15.5848 13.6086 14.7677 13.2675 13.8006 13.2675C12.8335 13.2675 12.0126 13.6086 11.3378 14.2908C10.6706 14.9655 10.337 15.7864 10.337 16.7535C10.337 17.7206 10.6706 18.5453 11.3378 19.2275Z" fill="white"/>
<path d="M25.8601 19.6323C25.0729 20.4195 24.1133 20.8131 22.9813 20.8131C21.8493 20.8131 20.8897 20.4195 20.1025 19.6323C19.3153 18.8377 18.9218 17.8781 18.9218 16.7535C18.9218 15.629 19.3153 14.6732 20.1025 13.886C20.8897 13.0913 21.8493 12.694 22.9813 12.694C24.1133 12.694 25.0729 13.0913 25.8601 13.886C26.6473 14.6732 27.0409 15.629 27.0409 16.7535C27.0409 17.8781 26.6473 18.8377 25.8601 19.6323ZM20.5186 19.2275C21.1933 19.9022 22.0142 20.2396 22.9813 20.2396C23.9484 20.2396 24.7656 19.9022 25.4328 19.2275C26.1075 18.5453 26.4449 17.7206 26.4449 16.7535C26.4449 15.7864 26.1075 14.9655 25.4328 14.2908C24.7656 13.6086 23.9484 13.2675 22.9813 13.2675C22.0142 13.2675 21.1933 13.6086 20.5186 14.2908C19.8514 14.9655 19.5178 15.7864 19.5178 16.7535C19.5178 17.7206 19.8514 18.5453 20.5186 19.2275Z" fill="white"/>
<path d="M36.0417 17.0234V17.3271C36.0417 18.3091 35.6931 19.1376 34.9959 19.8123C34.2987 20.4795 33.3803 20.8131 32.2408 20.8131C31.0413 20.8131 30.0517 20.4233 29.272 19.6436C28.4923 18.8564 28.1025 17.8931 28.1025 16.7535C28.1025 15.614 28.4886 14.6544 29.2608 13.8747C30.0329 13.0876 31.0113 12.694 32.1958 12.694C32.9155 12.694 33.5752 12.8664 34.175 13.2113C34.7822 13.5561 35.2508 14.0172 35.5806 14.5944L35.0521 14.9093C34.7897 14.4145 34.3999 14.0172 33.8826 13.7173C33.3728 13.4174 32.8105 13.2675 32.1958 13.2675C31.1762 13.2675 30.3366 13.6049 29.6768 14.2796C29.0246 14.9468 28.6985 15.7715 28.6985 16.7535C28.6985 17.7356 29.0284 18.564 29.6881 19.2388C30.3478 19.906 31.1987 20.2396 32.2408 20.2396C33.1629 20.2396 33.9088 19.9884 34.4786 19.4862C35.0483 18.9839 35.367 18.3504 35.4344 17.5857H32.0946V17.0234H36.0417Z" fill="white"/>
<path d="M38.1314 20.1271H41.8423V20.6894H37.5354V12.8177H38.1314V20.1271Z" fill="white"/>
<path d="M43.6772 20.1271H47.613V20.6894H43.0812V12.8177H47.5568V13.38H43.6772V16.4387H47.2757V17.0009H43.6772V20.1271Z" fill="white"/>
<path d="M54.7516 12.8177C55.4563 12.8177 56.0411 13.0501 56.5059 13.5149C56.9707 13.9797 57.2031 14.5607 57.2031 15.2579C57.2031 15.9551 56.9707 16.5361 56.5059 17.0009C56.0411 17.4583 55.4563 17.6869 54.7516 17.6869H52.6712V20.6894H52.0752V12.8177H54.7516ZM54.7516 17.1246C55.2914 17.1246 55.7337 16.9485 56.0785 16.5961C56.4309 16.2438 56.6071 15.7977 56.6071 15.2579C56.6071 14.7106 56.4309 14.2608 56.0785 13.9085C55.7337 13.5561 55.2914 13.38 54.7516 13.38H52.6712V17.1246H54.7516Z" fill="white"/>
<path d="M59.2712 20.1271H62.9822V20.6894H58.6752V12.8177H59.2712V20.1271Z" fill="white"/>
<path d="M69.7372 20.6894L68.9725 18.6877H65.0254L64.2607 20.6894H63.631L66.6897 12.8177H67.3195L70.3669 20.6894H69.7372ZM65.2503 18.1255H68.7589L67.0046 13.5486L65.2503 18.1255Z" fill="white"/>
<path d="M75.9678 12.8177L73.1002 17.4508V20.6894H72.5042V17.4508L69.6367 12.8177H70.3114L72.8079 16.8772L75.2931 12.8177H75.9678Z" fill="white"/>
</svg>
