<svg width="77" height="25" viewBox="0 0 77 25" fill="none" xmlns="http://www.w3.org/2000/svg">
<path d="M4.30024 6.22712H5.77619L3.7689 0.323332H2.04836L0.0410767 6.22712H1.51702L1.81221 5.29938H4.00505L4.30024 6.22712ZM2.21704 4.03428L2.90863 1.86675L3.60022 4.03428H2.21704Z" fill="white"/>
<path d="M8.76313 2.01013L7.886 4.6837L7.00886 2.01013H5.60882L7.16911 6.22712H8.60289L10.1632 2.01013H8.76313Z" fill="white"/>
<path d="M13.5242 2.01013V2.40653C13.2459 2.08603 12.8326 1.89205 12.2675 1.89205C11.1627 1.89205 10.2518 2.86196 10.2518 4.11862C10.2518 5.37529 11.1627 6.3452 12.2675 6.3452C12.8326 6.3452 13.2459 6.15121 13.5242 5.83072V6.22712H14.7893V2.01013H13.5242ZM12.5205 5.14757C11.9386 5.14757 11.5169 4.75117 11.5169 4.11862C11.5169 3.48608 11.9386 3.08968 12.5205 3.08968C13.1025 3.08968 13.5242 3.48608 13.5242 4.11862C13.5242 4.75117 13.1025 5.14757 12.5205 5.14757Z" fill="white"/>
<path d="M15.7174 6.22712H16.9825V0.0703125H15.7174V6.22712Z" fill="white"/>
<path d="M18.5408 1.63903C18.9541 1.63903 19.2999 1.29324 19.2999 0.879975C19.2999 0.46671 18.9541 0.120916 18.5408 0.120916C18.1276 0.120916 17.7818 0.46671 17.7818 0.879975C17.7818 1.29324 18.1276 1.63903 18.5408 1.63903ZM17.9083 6.22712H19.1734V2.01013H17.9083V6.22712Z" fill="white"/>
<path d="M22.6209 1.89205C22.0558 1.89205 21.6426 2.08603 21.3642 2.40653V0.323332H20.0991V6.22712H21.3642V5.83072C21.6426 6.15121 22.0558 6.3452 22.6209 6.3452C23.7257 6.3452 24.6366 5.37529 24.6366 4.11862C24.6366 2.86196 23.7257 1.89205 22.6209 1.89205ZM22.3679 5.14757C21.7859 5.14757 21.3642 4.75117 21.3642 4.11862C21.3642 3.48608 21.7859 3.08968 22.3679 3.08968C22.9498 3.08968 23.3715 3.48608 23.3715 4.11862C23.3715 4.75117 22.9498 5.14757 22.3679 5.14757Z" fill="white"/>
<path d="M25.3539 6.22712H26.619V0.0703125H25.3539V6.22712Z" fill="white"/>
<path d="M28.6749 4.62466H31.669C31.7027 4.46442 31.7196 4.29574 31.7196 4.11862C31.7196 2.84509 30.8087 1.89205 29.5773 1.89205C28.2448 1.89205 27.3339 2.86196 27.3339 4.11862C27.3339 5.37529 28.2279 6.3452 29.6701 6.3452C30.4713 6.3452 31.0955 6.05001 31.5087 5.4765L30.4967 4.89455C30.328 5.0801 30.0328 5.21504 29.687 5.21504C29.2231 5.21504 28.8352 5.06323 28.6749 4.62466ZM28.6496 3.68006C28.7677 3.24992 29.0882 3.01377 29.5689 3.01377C29.9484 3.01377 30.328 3.19089 30.4629 3.68006H28.6496Z" fill="white"/>
<path d="M36.5698 6.3452C37.8096 6.3452 38.8048 5.37529 38.8048 4.11862C38.8048 2.86196 37.8096 1.89205 36.5698 1.89205C35.33 1.89205 34.3348 2.86196 34.3348 4.11862C34.3348 5.37529 35.33 6.3452 36.5698 6.3452ZM36.5698 5.11383C36.0216 5.11383 35.5999 4.71744 35.5999 4.11862C35.5999 3.51981 36.0216 3.12341 36.5698 3.12341C37.118 3.12341 37.5397 3.51981 37.5397 4.11862C37.5397 4.71744 37.118 5.11383 36.5698 5.11383Z" fill="white"/>
<path d="M41.9915 1.89205C41.4349 1.89205 41.0132 2.09447 40.7854 2.40653V2.01013H39.5204V6.22712H40.7854V3.92464C40.7854 3.32583 41.1059 3.05594 41.5698 3.05594C41.9746 3.05594 42.3036 3.30053 42.3036 3.82343V6.22712H43.5687V3.63789C43.5687 2.4993 42.8433 1.89205 41.9915 1.89205Z" fill="white"/>
<path d="M49.0171 3.22462V2.01013H48.1484V0.829371L46.8833 1.2089V2.01013H46.2086V3.22462H46.8833V4.71744C46.8833 5.89819 47.364 6.3958 49.0171 6.22712V5.0801C48.4604 5.11383 48.1484 5.0801 48.1484 4.71744V3.22462H49.0171Z" fill="white"/>
<path d="M52.2045 1.89205C51.6479 1.89205 51.2262 2.09447 50.9985 2.40653V0.323332H49.7334V6.22712H50.9985V3.92464C50.9985 3.32583 51.319 3.05594 51.7828 3.05594C52.1877 3.05594 52.5166 3.30053 52.5166 3.82343V6.22712H53.7817V3.63789C53.7817 2.4993 53.0564 1.89205 52.2045 1.89205Z" fill="white"/>
<path d="M55.7806 4.62466H58.7747C58.8084 4.46442 58.8253 4.29574 58.8253 4.11862C58.8253 2.84509 57.9144 1.89205 56.683 1.89205C55.3505 1.89205 54.4396 2.86196 54.4396 4.11862C54.4396 5.37529 55.3336 6.3452 56.7758 6.3452C57.577 6.3452 58.2012 6.05001 58.6144 5.4765L57.6024 4.89455C57.4337 5.0801 57.1385 5.21504 56.7927 5.21504C56.3288 5.21504 55.9409 5.06323 55.7806 4.62466ZM55.7553 3.68006C55.8734 3.24992 56.1939 3.01377 56.6746 3.01377C57.0541 3.01377 57.4337 3.19089 57.5686 3.68006H55.7553Z" fill="white"/>
<path d="M7.13968 21.6894H9.59959L6.25411 11.8498H3.38656L0.0410767 21.6894H2.50099L2.99297 20.1432H6.6477L7.13968 21.6894ZM3.66769 18.0347L4.82033 14.4221L5.97298 18.0347H3.66769Z" fill="white"/>
<path d="M14.5712 14.4643C13.6295 14.4643 12.9407 14.7876 12.4768 15.3218V14.6611H10.3683V24.5007H12.4768V21.0288C12.9407 21.5629 13.6295 21.8862 14.5712 21.8862C16.4127 21.8862 17.9308 20.2697 17.9308 18.1753C17.9308 16.0808 16.4127 14.4643 14.5712 14.4643ZM14.1495 19.8902C13.1796 19.8902 12.4768 19.2295 12.4768 18.1753C12.4768 17.121 13.1796 16.4604 14.1495 16.4604C15.1195 16.4604 15.8223 17.121 15.8223 18.1753C15.8223 19.2295 15.1195 19.8902 14.1495 19.8902Z" fill="white"/>
<path d="M23.3292 14.4643C22.3874 14.4643 21.6986 14.7876 21.2348 15.3218V14.6611H19.1263V24.5007H21.2348V21.0288C21.6986 21.5629 22.3874 21.8862 23.3292 21.8862C25.1706 21.8862 26.6887 20.2697 26.6887 18.1753C26.6887 16.0808 25.1706 14.4643 23.3292 14.4643ZM22.9075 19.8902C21.9376 19.8902 21.2348 19.2295 21.2348 18.1753C21.2348 17.121 21.9376 16.4604 22.9075 16.4604C23.8774 16.4604 24.5802 17.121 24.5802 18.1753C24.5802 19.2295 23.8774 19.8902 22.9075 19.8902Z" fill="white"/>
<path d="M27.8842 21.6894H29.9927V11.4281H27.8842V21.6894Z" fill="white"/>
<path d="M33.4192 19.0187H38.4093C38.4656 18.7516 38.4937 18.4705 38.4937 18.1753C38.4937 16.0527 36.9756 14.4643 34.9233 14.4643C32.7023 14.4643 31.1842 16.0808 31.1842 18.1753C31.1842 20.2697 32.6742 21.8862 35.0779 21.8862C36.4133 21.8862 37.4535 21.3942 38.1423 20.4384L36.4555 19.4685C36.1743 19.7777 35.6823 20.0026 35.106 20.0026C34.3329 20.0026 33.6863 19.7496 33.4192 19.0187ZM33.3771 17.4443C33.5738 16.7274 34.108 16.3338 34.9092 16.3338C35.5418 16.3338 36.1743 16.629 36.3992 17.4443H33.3771Z" fill="white"/>
<path d="M46.7179 21.8862C48.8545 21.8862 50.3726 20.7617 50.3726 18.864C50.3726 16.7837 48.6999 16.2636 47.2099 15.8137C45.6777 15.3499 45.4387 15.0406 45.4387 14.5908C45.4387 14.1972 45.7902 13.8458 46.493 13.8458C47.3926 13.8458 47.8565 14.2816 48.1938 14.9844L50.0915 13.8739C49.3746 12.4261 48.1095 11.653 46.493 11.653C44.7921 11.653 43.1897 12.7494 43.1897 14.647C43.1897 16.5306 44.6235 17.2335 46.0854 17.6411C47.5613 18.0488 48.1236 18.2877 48.1236 18.8922C48.1236 19.2717 47.8565 19.6934 46.7882 19.6934C45.6777 19.6934 45.0733 19.1452 44.7219 18.3299L42.782 19.4544C43.3303 20.9022 44.6516 21.8862 46.7179 21.8862Z" fill="white"/>
<path d="M55.339 16.6853V14.6611H53.8912V12.6932L51.7827 13.3257V14.6611H50.6582V16.6853H51.7827V19.1733C51.7827 21.1412 52.5839 21.9706 55.339 21.6894V19.7777C54.4113 19.8339 53.8912 19.7777 53.8912 19.1733V16.6853H55.339Z" fill="white"/>
<path d="M59.7692 21.8862C61.8355 21.8862 63.4942 20.2697 63.4942 18.1753C63.4942 16.0808 61.8355 14.4643 59.7692 14.4643C57.7028 14.4643 56.0442 16.0808 56.0442 18.1753C56.0442 20.2697 57.7028 21.8862 59.7692 21.8862ZM59.7692 19.8339C58.8555 19.8339 58.1526 19.1733 58.1526 18.1753C58.1526 17.1772 58.8555 16.5166 59.7692 16.5166C60.6828 16.5166 61.3857 17.1772 61.3857 18.1753C61.3857 19.1733 60.6828 19.8339 59.7692 19.8339Z" fill="white"/>
<path d="M66.7953 15.9121V14.6611H64.6868V21.6894H66.7953V18.5126C66.7953 17.121 68.0323 16.7696 68.9038 16.9102V14.5205C68.0182 14.5205 67.0764 14.9703 66.7953 15.9121Z" fill="white"/>
<path d="M71.5671 19.0187H76.5572C76.6134 18.7516 76.6415 18.4705 76.6415 18.1753C76.6415 16.0527 75.1234 14.4643 73.0711 14.4643C70.8502 14.4643 69.3321 16.0808 69.3321 18.1753C69.3321 20.2697 70.8221 21.8862 73.2258 21.8862C74.5611 21.8862 75.6013 21.3942 76.2901 20.4384L74.6033 19.4685C74.3222 19.7777 73.8302 20.0026 73.2539 20.0026C72.4808 20.0026 71.8342 19.7496 71.5671 19.0187ZM71.5249 17.4443C71.7217 16.7274 72.2559 16.3338 73.0571 16.3338C73.6896 16.3338 74.3222 16.629 74.5471 17.4443H71.5249Z" fill="white"/>
</svg>
