
        <svg xmlns="http://www.w3.org/2000/svg" xmlns:xlink="http://www.w3.org/1999/xlink" version="1.1" width="3171.4285714285716" height="2153.665376738932" viewBox="0 0 3171.4285714285716 2153.665376738932">
			
			<g transform="scale(8.571428571428571) translate(10, 10)">
				<defs id="SvgjsDefs2662"/><g id="SvgjsG2663" featureKey="symbolFeature-0" transform="matrix(1.7472374487245175,0,0,1.7472374487245175,87.63729941492082,-8.706059788205275)" fill="#fff"><path xmlns="http://www.w3.org/2000/svg" fill-rule="evenodd" clip-rule="evenodd" d="M56.082,24.612c-1.167,0.7-1.784,1.45-1.85,2.25c-0.133,0.8,0.1,1.8,0.7,3  c0.333,0.7,0.9,1.717,1.7,3.05c2.6,5.167,4.317,9.35,5.15,12.55c0.8,3.367,1.684,6.184,2.65,8.45c0.4,1,0.733,1.55,1,1.65  c0.2,0.133,0.85,0.066,1.95-0.2c2.5-0.634,5.1-2.233,7.8-4.8c1.634-1.567,1.983-3.617,1.05-6.15c-0.2-0.467-0.483-1.033-0.85-1.7  c-0.6-0.934-0.933-1.483-1-1.649c-0.933-1.634-1.6-2.884-2-3.75c-0.767-1.434-1.233-2.768-1.4-4c-0.133-0.768-0.133-1.351,0-1.75  c0.167-0.467,0.566-0.834,1.2-1.101c0.8-0.366,1.217-0.899,1.25-1.6c0.034-1.233-0.65-2.934-2.05-5.101  c-1.4-2.233-2.683-3.566-3.85-4c-0.3-0.1-0.783-0.166-1.45-0.199c-2.4,0.267-4.784,1.366-7.15,3.3  C58.365,23.329,57.415,23.912,56.082,24.612z M60.182,19.813c3.233-2.067,5.7-2.9,7.4-2.5c1.667,0.399,3.566,2.232,5.7,5.5  c0.667,1.232,1.184,2.166,1.55,2.8c0.7,1.267,1.033,2.316,1,3.149c-0.067,1.134-0.65,2.134-1.75,3c-1,0.801-1.083,2.067-0.25,3.801  c0.7,1.433,1.25,2.517,1.65,3.25c0.667,1.267,1.267,2.316,1.8,3.149c1.4,2.167,1.833,4.2,1.3,6.101  c-0.434,1.566-1.667,3.333-3.7,5.3c-2.333,2.267-4.7,3.6-7.1,4c-1.4,0.267-1.767,1.033-1.1,2.3l0.8,1.8  c0.8,1.533,1.7,2.566,2.7,3.101c1.067,0.533,2.4,0.583,4,0.149c4.434-1.366,7.784-2.866,10.05-4.5c0.8-0.6,1.35-0.866,1.65-0.8  c0.3,0.033,0.75,0.45,1.35,1.25c0.533,0.767,1.033,1.8,1.5,3.1c0.767,2.033,1.167,3.117,1.2,3.25c0.367,0.967-0.033,2.017-1.2,3.15  c-1.133,1.033-3.2,2.283-6.2,3.75c-5.033,2.533-9.833,3.5-14.4,2.9c-3.567-0.467-6.267-2.4-8.1-5.801  c-0.867-1.633-1.85-2.916-2.95-3.85c-6.4,6.767-10.267,10.85-11.6,12.25l-3.2,3.5c-2.767,3.1-4.5,5.233-5.2,6.4  c-0.767,1.166-2.333,2.732-4.7,4.699c-1.467,1.233-2.883,1.334-4.25,0.301c-0.367-0.268-1.15-0.7-2.35-1.301  c-1-0.5-1.75-1.017-2.25-1.55c-0.7-0.733-1.1-1.383-1.2-1.95c-0.067-0.6,0.167-1.366,0.7-2.3c0.4-0.7,0.833-1.283,1.3-1.75  c1.066-1.066,2.6-2.75,4.6-5.05c1.967-2.3,3.483-4,4.55-5.1c1.667-1.667,3.433-3.768,5.3-6.301c0.667-0.933,2.233-3.183,4.7-6.75  c0.967-1.366,1.117-2.767,0.45-4.199l-5.2-10.15c-0.767-1.4-1.9-1.75-3.4-1.05c-2.167,1.1-6.75,3.683-13.75,7.75  c-2.934,1.7-4.7,2.683-5.3,2.95c-1.2,0.566-2.083,0.716-2.65,0.449c-0.6-0.267-1.167-1.017-1.7-2.25  c-0.733-2-1.316-3.483-1.75-4.449c-0.466-1.101-0.267-2.051,0.6-2.851c0.733-0.733,1.283-1.283,1.65-1.649  c0.7-0.667,1.317-1.184,1.85-1.551c4.4-2.933,9.184-5.85,14.35-8.75c7.933-4.666,13.85-8.149,17.75-10.449  c0.9-0.567,1.6-0.934,2.1-1.101c0.833-0.267,1.667-0.083,2.5,0.55c0.7,0.533,1.75,0.184,3.15-1.05  C56.798,22.262,58.815,20.712,60.182,19.813z M66.832,22.662c1.167,0.633,2.267,1.85,3.3,3.65c0.067,0.199,0.05,0.399-0.05,0.6  c-0.1,0.233-0.267,0.366-0.5,0.4c-0.434,0.232-0.7,0.3-0.8,0.199c-0.333-0.433-0.8-1.166-1.4-2.199c-0.5-0.834-1.067-1.4-1.7-1.7  C65.915,22.679,66.298,22.362,66.832,22.662z M50.932,30.762c1.633,3.134,2.8,5.717,3.5,7.75c0.2,0.567,0,0.967-0.6,1.2  c-0.633,0.167-0.983,0.017-1.05-0.45c-0.233-1.1-0.7-2.449-1.4-4.05c-1.067-2.167-1.667-3.45-1.8-3.85l-0.05-0.25  c0-0.367,0.2-0.584,0.6-0.65C50.532,30.362,50.798,30.462,50.932,30.762z M51.432,28.662c-0.533-0.367-1.333-0.9-2.4-1.6  c-0.333-0.268-0.883-0.217-1.65,0.149c-0.4,0.2-0.983,0.55-1.75,1.05l-1.35,0.851c-1.633,0.899-4.367,2.517-8.2,4.85  c-3.467,2.101-6.217,3.684-8.25,4.75c-4.4,2.4-8.5,5.017-12.3,7.851c-1.6,1.166-2.533,2.267-2.8,3.3c-0.2,0.967,0.167,2.25,1.1,3.85  c0.433,0.833,0.867,1.333,1.3,1.5c0.433,0.134,1.1,0,2-0.399l3.3-1.851c7.233-4.1,12.133-6.833,14.7-8.2  c1.5-0.833,2.533-1.166,3.1-1c0.533,0.167,1.25,1,2.15,2.5c2.233,4.567,4,7.95,5.3,10.15c0.6,0.967,0.867,1.917,0.8,2.85  c-0.067,0.834-0.4,1.733-1,2.7c-3.267,5.333-6.817,10.066-10.65,14.2c-0.1,0.1-3.05,3.434-8.85,10c-0.9,1.033-1.3,1.917-1.2,2.65  c0.133,0.767,0.833,1.482,2.1,2.149c1.767,0.967,3.083,1.384,3.95,1.25c0.9-0.133,2.05-0.95,3.45-2.45l0.4-0.449  c1.633-2.301,3.8-4.917,6.5-7.851c3.1-3.3,5.4-5.8,6.9-7.5c4.1-4.267,7.167-7.467,9.2-9.6c0.567-0.567,0.967-0.783,1.2-0.65  c0.267,0.101,0.533,0.533,0.8,1.3c0.867,2.667,2.533,5.434,5,8.301c0.5,0.533,1.167,0.85,2,0.949l5.75,0.801  c4.633-0.4,9.45-2.301,14.45-5.7c0.767-0.5,1.1-1.233,1-2.2c-0.033-0.533-0.367-1.75-1-3.65c-0.434-1.233-1.233-1.5-2.4-0.8  c-2.534,1.667-5.817,3.083-9.85,4.25c-1.533,0.434-2.967,0.434-4.3,0c-1.333-0.434-2.433-1.25-3.3-2.45  c-1.733-2.467-3.083-5.399-4.05-8.8c-1.633-5.667-2.934-9.899-3.9-12.7c-1.6-4.633-3.3-8.717-5.1-12.25  C53.115,29.962,52.398,29.262,51.432,28.662z M54.832,42.912c0.433,0.267,0.8,0.733,1.1,1.4c0.333,0.767,0.6,1.25,0.8,1.449  c-0.067,0.7-0.3,1.067-0.7,1.101c-0.233,0.066-0.533,0-0.9-0.2l-0.2-0.2c-0.3-0.7-0.5-1.217-0.6-1.55c-0.2-0.634-0.2-1.217,0-1.75  C54.432,42.862,54.599,42.778,54.832,42.912z M70.932,41.662c-0.5-0.267-0.667-0.6-0.5-1c0.233-0.634,0.633-0.816,1.2-0.55  c0.1,0.033,0.2,0.149,0.3,0.35c0.067,0.167,0.083,0.316,0.05,0.45C71.882,41.479,71.532,41.729,70.932,41.662z M72.382,48.612  c-0.1-0.467,0.167-0.733,0.8-0.8c0.467,0,0.75,0.232,0.85,0.699c0,0.601-0.2,0.917-0.6,0.95  C72.832,49.462,72.482,49.179,72.382,48.612z M72.832,46.162c-0.434,0-0.717-0.25-0.85-0.75c-0.1-0.533,0.1-0.833,0.6-0.9  c0.7-0.199,1.066,0.017,1.1,0.65C73.749,45.729,73.465,46.063,72.832,46.162z M70.132,50.762c0.533,0.067,0.75,0.367,0.65,0.9  c-0.033,0.434-0.316,0.65-0.85,0.65c-0.5-0.101-0.75-0.384-0.75-0.851C69.315,50.995,69.632,50.762,70.132,50.762z M57.382,51.512  c-0.7-0.1-1.017-0.433-0.95-1c0.067-0.566,0.417-0.85,1.05-0.85c0.6-0.033,0.9,0.267,0.9,0.9  C58.382,51.195,58.048,51.512,57.382,51.512z M30.032,10.412c0,0.8-0.533,1.333-1.6,1.6c-0.566,0.134-0.95-0.116-1.15-0.75  c0-0.467,0.184-0.816,0.55-1.05c0.5-0.167,0.867-0.316,1.1-0.45c0.3-0.1,0.567-0.083,0.8,0.051  C29.932,9.912,30.032,10.112,30.032,10.412z M32.182,6.762c-2.233-0.066-4.1,0.75-5.6,2.45c-1.3,1.601-2,3.483-2.1,5.65  c-0.1,2.133,0.833,4.116,2.8,5.95c1.967,1.866,4.1,2.783,6.4,2.75c2.3,0,4.333-0.867,6.1-2.601c1.8-1.733,2.617-3.649,2.45-5.75  c-0.167-3-1.067-5.149-2.7-6.45C37.965,7.528,35.515,6.862,32.182,6.762z M33.432,9.362l1.1-0.05c3.067,0.133,5.133,1.55,6.2,4.25  c0.367,0.833,0.267,1.35-0.3,1.55c-0.533,0.2-0.933-0.033-1.2-0.7c-0.967-2.4-2.817-3.417-5.55-3.05  c-0.933,0.066-1.417-0.2-1.45-0.8C32.132,9.929,32.532,9.528,33.432,9.362z M41.182,22.012c-2.2,2.434-4.816,3.717-7.85,3.851  c-2.6,0.1-5.017-0.867-7.25-2.9c-2.3-2.033-3.517-4.35-3.65-6.95c-0.133-2.899,0.633-5.433,2.3-7.6c2-2.4,4.767-3.533,8.3-3.4  c3.133-0.199,5.7,0.584,7.7,2.351c1.967,1.7,3.083,4.066,3.35,7.1C44.315,17.129,43.349,19.646,41.182,22.012z M17.782,48.662  c-0.566,0-0.816-0.25-0.75-0.75c0.2-0.634,0.583-0.884,1.15-0.75c0.367,0.066,0.55,0.283,0.55,0.65  C18.732,48.479,18.415,48.762,17.782,48.662z M23.332,43.962c0.533,0.233,0.633,0.566,0.3,1c-0.267,0.467-0.6,0.601-1,0.4  c-0.533-0.267-0.717-0.584-0.55-0.95C22.349,43.846,22.765,43.695,23.332,43.962z M29.382,41.712  c-0.033,0.566-0.383,0.851-1.05,0.851c-0.5,0-0.75-0.268-0.75-0.801c0.1-0.566,0.35-0.866,0.75-0.899  C28.898,40.862,29.249,41.146,29.382,41.712z M33.732,38.813c-0.2,0.366-0.5,0.533-0.9,0.5c-0.5,0-0.7-0.167-0.6-0.5  c0-0.634,0.35-0.867,1.05-0.7C33.682,38.212,33.832,38.445,33.732,38.813z M42.432,75.512c0-0.566,0.333-0.899,1-1  c0.7,0,1.05,0.317,1.05,0.95c0,0.566-0.35,0.884-1.05,0.95C42.765,76.346,42.432,76.045,42.432,75.512z M39.782,78.762  c0.567,0,0.883,0.217,0.95,0.65c-0.1,0.633-0.434,0.967-1,1c-0.333,0.033-0.583-0.033-0.75-0.2c-0.167-0.167-0.25-0.383-0.25-0.649  C38.732,78.929,39.082,78.662,39.782,78.762z M34.482,84.012c0.033-0.633,0.4-0.899,1.1-0.8c0.667,0.134,0.917,0.483,0.75,1.05  c-0.167,0.467-0.567,0.7-1.2,0.7C34.599,84.795,34.382,84.479,34.482,84.012z M32.682,87.313c0.434,0,0.65,0.283,0.65,0.85  c0,0.667-0.317,0.95-0.95,0.85c-0.6-0.066-0.85-0.333-0.75-0.8C31.732,87.545,32.082,87.245,32.682,87.313z"/></g><g id="SvgjsG2664" featureKey="fiAKjI-0" transform="matrix(4.212806840227736,0,0,4.212806840227736,-4.212806840227736,147.004815779696)" fill="#fff"><path d="M1 20 l0 -11.98 c0 -0.5 0.1 -0.6 0.26 -0.6 l8.76 0 c0.14 0 0.26 0.1 0.26 0.24 l0 2.26 c0 0.14 -0.12 0.26 -0.26 0.26 l-5.92 0 l0 2.08 l3.74 0 c0.14 0 0.26 0.12 0.26 0.26 l0 2.24 c0 0.14 -0.12 0.26 -0.26 0.26 l-3.74 0 l0 2.14 l5.9 0 c0.14 0 0.26 0.12 0.26 0.26 l0 2.24 c0 0.14 -0.12 0.26 -0.26 0.26 l-8.74 0 c-0.16 0 -0.26 -0.12 -0.26 0.08 z M12.54 20 c-0.08 0 -0.16 -0.04 -0.2 -0.12 c-0.06 -0.06 -0.06 -0.16 -0.04 -0.24 l4.66 -11.98 c0.04 -0.1 0.14 -0.16 0.24 -0.16 l2.68 0 c0.1 0 0.2 0.06 0.24 0.16 l4.58 11.98 c0.02 0.08 0.02 0.16 -0.04 0.24 c-0.04 0.08 -0.12 0.12 -0.2 0.12 l-2.78 0 c-0.1 0 -0.2 -0.06 -0.24 -0.16 l-0.74 -1.84 l-4.5 0.02 l-0.74 1.82 c-0.04 0.1 -0.14 0.16 -0.24 0.16 l-2.68 0 z M17.02 15.5 l2.88 0 l-1.44 -4.24 z M26.78 20 c-0.16 0 -0.26 -0.12 -0.26 -0.26 l0 -11.98 c0 -0.14 0.1 -0.26 0.26 -0.26 l4.88 0 c1.52 0 2.72 0.38 3.56 1.16 c1.24 1.12 1.66 3.24 1.06 4.8 c-0.22 0.56 -0.6 1.08 -1.08 1.46 c-0.28 0.22 -0.58 0.38 -0.88 0.54 c0.86 1.36 2.16 4.12 2.16 4.12 c0.02 0.04 0.06 0.1 0.06 0.16 c0 0.14 -0.12 0.26 -0.26 0.26 l-2.96 0 c-0.08 0 -0.18 -0.06 -0.22 -0.14 l-1.74 -3.82 c-0.62 0.04 -1.1 0.02 -1.74 0.02 l0 3.68 c0 0.14 -0.12 0.26 -0.26 0.26 l-2.58 0 z M29.619999999999997 13.280000000000001 c0 0 2.52 0.28 3.4 -0.3 c0.34 -0.22 0.54 -0.76 0.54 -1.16 c-0.02 -0.44 -0.24 -0.9 -0.6 -1.18 c-0.38 -0.32 -1.32 -0.42 -1.8 -0.42 l-1.54 0.04 l0 3.02 z M38.82 20 c-0.14 0 -0.26 -0.12 -0.26 -0.26 l0 -11.98 c0 -0.14 0.12 -0.26 0.26 -0.26 l2.6 0 c0.14 0 0.26 0.12 0.26 0.26 l0 9.36 l4.5 0 c0.14 0 0.26 0.12 0.26 0.26 l0 2.36 c0 0.14 -0.12 0.26 -0.26 0.26 l-7.36 0 z M51.34 20 c-0.14 0 -0.24 -0.12 -0.24 -0.26 l0 -4.76 l-4.24 -7.1 c-0.04 -0.08 -0.04 -0.18 0.02 -0.26 c0.04 -0.08 0.12 -0.12 0.22 -0.12 l2.6 0 c0.1 0 0.18 0.04 0.22 0.14 l2.72 4.44 l2.66 -4.44 c0.04 -0.08 0.12 -0.14 0.22 -0.14 l2.62 0 c0.08 0 0.18 0.04 0.22 0.12 s0.04 0.18 0 0.26 l-4.16 7.02 l0 4.84 c0 0.14 -0.12 0.26 -0.26 0.26 l-2.6 0 z M65.22 20 c-1.2 0 -2.3 -0.28 -3.26 -0.84 c-0.98 -0.56 -1.76 -1.36 -2.34 -2.32 c-0.56 -0.98 -0.84 -2.1 -0.84 -3.3 c0 -1.18 0.28 -2.28 0.84 -3.26 c0.58 -0.98 1.34 -1.76 2.32 -2.32 s2.08 -0.84 3.28 -0.84 c1.18 0 2.28 0.28 3.26 0.84 s1.76 1.34 2.32 2.32 c0.58 0.98 0.86 2.08 0.86 3.26 c0 1.2 -0.28 2.3 -0.86 3.28 c-0.56 0.98 -1.34 1.76 -2.32 2.34 c-0.98 0.56 -2.08 0.84 -3.26 0.84 z M65.26 17.12 c0.58 0 1.12 -0.16 1.6 -0.46 c0.5 -0.32 0.9 -0.74 1.18 -1.3 c0.3 -0.54 0.44 -1.16 0.44 -1.82 c0 -0.64 -0.14 -1.26 -0.44 -1.8 c-0.28 -0.54 -0.68 -0.96 -1.18 -1.28 c-0.48 -0.3 -1.02 -0.46 -1.6 -0.46 c-0.6 0 -1.14 0.16 -1.64 0.46 c-0.52 0.32 -0.92 0.74 -1.22 1.28 c-0.3 0.56 -0.44 1.16 -0.44 1.8 c0 0.66 0.14 1.28 0.44 1.82 c0.32 0.54 0.72 0.98 1.22 1.28 c0.5 0.32 1.04 0.48 1.64 0.48 z M73.92 20 c-0.14 0 -0.26 -0.12 -0.26 -0.26 l0 -11.98 c0 -0.14 0.12 -0.26 0.26 -0.26 l2.36 0 c0.08 0 0.16 0.04 0.22 0.1 l4.6 7.1 l0 -6.94 c0 -0.14 0.12 -0.26 0.26 -0.26 l2.46 0 c0.14 0 0.26 0.12 0.26 0.26 l0 11.98 c0 0.14 -0.12 0.26 -0.26 0.26 l-2.36 0 c-0.08 0 -0.16 -0.04 -0.22 -0.1 l-4.58 -7.06 l0 6.9 c0 0.14 -0.12 0.26 -0.26 0.26 l-2.48 0 z"/></g>
			</g>
		</svg>
	